<?xml version="1.0" encoding="UTF-8" standalone="no"?>
<svg
   width="33mm"
   height="23mm"
   viewBox="0 0 124.72441 86.929132"
   version="1.1"
   id="svg18"
   sodipodi:docname="trace (1) (copy 2).svg"
   inkscape:version="1.1.2 (0a00cf5339, 2022-02-04)"
   xmlns:inkscape="http://www.inkscape.org/namespaces/inkscape"
   xmlns:sodipodi="http://sodipodi.sourceforge.net/DTD/sodipodi-0.dtd"
   xmlns="http://www.w3.org/2000/svg"
   xmlns:svg="http://www.w3.org/2000/svg">
  <defs
     id="defs22" />
  <sodipodi:namedview
     id="namedview20"
     pagecolor="#ffffff"
     bordercolor="#666666"
     borderopacity="1.0"
     inkscape:pageshadow="2"
     inkscape:pageopacity="0.0"
     inkscape:pagecheckerboard="0"
     showgrid="false"
     inkscape:zoom="3.476947"
     inkscape:cx="-10.929128"
     inkscape:cy="46.592599"
     inkscape:window-width="1920"
     inkscape:window-height="1031"
     inkscape:window-x="0"
     inkscape:window-y="25"
     inkscape:window-maximized="1"
     inkscape:current-layer="layer1"
     units="mm"
     width="33mm"
     inkscape:document-units="mm" />
  <path
     d="m 92.264824,4.9468024 c -1.129171,0.078201 -1.277337,0.133282 -2.703676,1.0033839 -0.743991,0.4538307 -0.823524,0.5449098 -1.209506,1.3873614 -0.387467,0.8454342 -0.629786,1.6764459 -0.488769,1.6764459 0.03438,0 0.153857,-0.2018319 0.265308,-0.4485858 0.507091,-1.1218814 1.679759,-2.07544 3.035434,-2.4683552 0.343442,-0.099547 1.080385,-0.203721 1.637676,-0.2314928 0.557297,-0.027784 1.178766,-0.086766 1.38093,-0.1308949 0.621305,-0.1358864 2.336878,0.2617939 3.536238,0.8198039 2.508411,1.166822 5.497581,3.8615542 7.754341,6.9905662 0.31866,0.441908 0.0968,0.01968 -0.31376,-0.597121 -0.94782,-1.42396 -3.11494,-3.7241114 -4.72831,-5.0187256 C 98.223069,6.157733 95.926385,5.0953376 93.933798,4.9237942 93.605967,4.8956552 92.854938,4.9060492 92.264879,4.9467952 M 86.42348,7.9687664 c -0.983388,0.5943788 -3.102353,1.8168718 -4.708681,2.7165476 -1.606355,0.899672 -5.522391,3.098017 -8.702307,4.885208 -8.32178,4.677065 -12.725758,7.122408 -14.40136,7.996574 -1.297239,0.676754 -1.506916,0.829938 -1.811737,1.323226 -0.29728,0.48137 -0.890962,2.464541 -0.77307,2.582558 0.08734,0.08727 4.206549,-2.140292 7.568616,-4.093061 1.934178,-1.123311 4.857787,-2.813943 6.49691,-3.756889 1.639147,-0.943068 4.294532,-2.474075 5.900887,-3.40248 1.606357,-0.928524 3.644815,-2.10548 4.529965,-2.615576 0.885118,-0.510098 2.824066,-1.649027 4.308838,-2.530701 l 2.699487,-1.6032498 0.0779,-0.6226298 c 0.04296,-0.3423701 0.210412,-0.9089733 0.372647,-1.2590927 0.162196,-0.3499977 0.280246,-0.6510023 0.262501,-0.6688846 -0.0166,-0.017745 -0.837106,0.4539502 -1.820578,1.0484491 m 8.404392,0.1318394 c -0.698086,0.3701458 -1.723308,1.1780292 -1.933459,1.5237356 -0.293604,0.4827988 -0.448714,1.6192248 -0.201243,1.4747428 0.563035,-0.328541 4.042167,-2.835639 4.042167,-2.9127663 0,-0.091453 -0.857594,-0.2459378 -1.357786,-0.2444952 -0.138324,4.765e-4 -0.385649,0.071878 -0.549561,0.1587852 m 11.029732,6.1068663 c 0.11061,0.200974 0.30747,0.496029 0.43704,0.655654 l 0.23563,0.290154 -0.20152,-0.365499 c -0.11063,-0.200974 -0.30748,-0.496032 -0.43705,-0.655653 l -0.23563,-0.290154 0.20152,0.365498 m 0.86882,1.363042 c 1.10448,1.948122 2.10106,4.859577 2.30918,6.746425 0.11477,1.038675 0.34143,1.759295 0.50022,1.589542 0.12615,-0.135084 -0.3402,-2.479798 -0.75733,-3.806004 -0.45561,-1.449114 -1.68906,-4.228124 -2.08974,-4.708777 -0.13639,-0.163331 -0.12449,-0.107052 0.0375,0.178826 m -1.6825,8.787529 c -1.36446,0.969535 -2.06663,1.53733 -1.96694,1.590497 0.29957,0.159741 1.2319,0.23365 1.59964,0.126856 0.52619,-0.152826 2.04565,-1.286275 2.24748,-1.676444 0.15634,-0.302805 0.38932,-1.561646 0.2872,-1.552587 -0.0249,0.0022 -1.00019,0.682473 -2.16737,1.511696 m 4.0331,-0.02443 c -0.18571,1.396898 -0.36869,1.982692 -1.03212,3.306635 -0.57589,1.149418 -0.79239,1.46425 -1.20748,1.755478 -0.55574,0.390057 -0.56625,0.399234 -0.97202,0.859144 -0.15524,0.175732 -0.50272,0.376943 -0.77224,0.447036 -0.26946,0.06996 -0.71811,0.193252 -0.9967,0.273923 l -0.50665,0.146629 0.77487,0.06198 c 1.35851,0.108704 2.34306,-0.312815 3.40545,-1.457692 0.597,-0.643376 0.77724,-0.949387 1.15584,-1.961593 0.38913,-1.040581 0.66796,-2.356536 0.68022,-3.211033 0.002,-0.140308 -0.0984,-0.381109 -0.22318,-0.535131 l -0.22678,-0.280147 -0.079,0.594733 m -7.72206,8.310934 c -0.86893,0.730753 -6.341693,5.409017 -12.161748,10.396028 -5.820053,4.987132 -11.327312,9.684467 -12.238403,10.438468 -1.955524,1.618267 -1.957437,1.609327 0.323009,1.579766 l 1.464039,-0.01897 1.873856,-1.720549 C 81.64662,52.372997 86.942391,47.69629 92.384284,42.926834 105.39471,31.523959 105.42833,31.494275 105.40139,31.474966 c -0.0111,-0.0091 -0.57293,-0.04862 -1.2448,-0.08774 l -1.22139,-0.07095 -1.57988,1.328472 m -60.350197,3.018385 c -5.338572,3.788597 -5.279553,3.731976 -5.666395,5.446806 l -0.207899,0.92256 0.314603,-0.21875 c 1.13463,-0.789287 9.390964,-6.620779 9.461044,-6.682409 0.04743,-0.04187 0.174645,-0.503903 0.282182,-1.026754 0.107542,-0.522852 0.297676,-1.151683 0.422489,-1.397612 0.125005,-0.245792 0.212348,-0.442747 0.194602,-0.437498 -0.0166,0.0054 -2.177953,1.532438 -4.800575,3.393658 m 8.556277,-0.903373 c -0.32961,0.262502 -0.677967,0.598552 -0.774154,0.746967 -0.19073,0.294199 -0.632781,1.975424 -0.543021,2.065067 0.03043,0.03067 0.377549,-0.200042 0.771186,-0.512241 l 0.715859,-0.567679 0.243967,-1.072886 c 0.134174,-0.590084 0.230646,-1.087189 0.214561,-1.104594 -0.0166,-0.01751 -0.298861,0.182989 -0.628344,0.445366 m 6.125342,2.990731 c -0.674137,0.4828 -0.926393,0.824691 -1.0798,1.463419 -0.09287,0.387068 -0.116431,0.395419 0.918963,-0.327946 0.498666,-0.34857 0.757109,-0.630262 0.923877,-1.007082 0.12722,-0.287782 0.231437,-0.543241 0.231437,-0.567676 0,-0.159144 -0.414366,0.02379 -0.994418,0.439286 M 30.33601,43.191691 c -2.774828,1.967909 -2.93742,2.104405 -3.256914,2.735261 -0.1849,0.365139 -0.405195,1.025798 -0.489461,1.468066 l -0.153232,0.804308 3.016852,-2.135282 c 1.659273,-1.174336 3.042589,-2.226 3.074049,-2.336984 0.03134,-0.110981 0.120845,-0.523687 0.198481,-0.917079 0.07763,-0.393396 0.246167,-0.921609 0.3742,-1.173857 0.128074,-0.252266 0.215657,-0.471475 0.194881,-0.487209 -0.02221,-0.01581 -1.352434,0.903492 -2.95879,2.042776 m 35.226418,7.892747 c -0.275819,0.04565 -0.792368,0.301508 -1.225337,0.607013 -0.679485,0.47958 -0.72467,0.537041 -0.49007,0.623826 0.142238,0.05268 0.452149,0.06178 0.688914,0.02016 0.760542,-0.133265 2.364511,-1.390106 1.716154,-1.34468 -0.116984,0.0083 -0.427369,0.05043 -0.689661,0.09366 m -1.531814,7.21146 c -0.517988,0.329016 -0.764618,0.551107 -0.674496,0.606777 0.07845,0.04842 0.591169,0.115995 1.139868,0.15022 l 0.997446,0.06224 0.839214,-0.507001 c 0.461464,-0.278941 0.83913,-0.534772 0.83913,-0.568625 0,-0.03359 -0.178518,-0.03241 -0.396625,0.0027 -0.217882,0.03557 -0.714306,-0.0107 -1.102672,-0.101644 -0.388415,-0.09145 -0.732904,-0.165555 -0.765671,-0.164883 -0.03281,5.96e-4 -0.427148,0.234717 -0.876194,0.52011 m -4.381191,7.970591 -4.933991,3.484853 1.104141,0.105993 c 0.643839,0.06178 1.303562,0.06178 1.582374,0 0.33783,-0.07485 1.862522,-1.085045 5.198256,-3.443849 l 4.720102,-3.337868 -1.093494,-0.07798 c -0.60154,-0.04289 -1.217382,-0.109079 -1.36854,-0.146981 -0.221477,-0.05568 -1.234649,0.6088 -5.208848,3.415829 m -10.54029,7.426161 c -1.637819,1.158119 -2.995019,2.121213 -3.015864,2.140167 -0.146387,0.132792 1.281495,0.262976 2.124174,0.193814 l 1.01327,-0.08323 2.859967,-2.02322 2.859964,-2.02311 -1.131419,-0.07296 c -0.622273,-0.0402 -1.266583,-0.109911 -1.431826,-0.155122 -0.256138,-0.06995 -0.738501,0.227801 -3.278266,2.023583"
     stroke="none"
     fill="#2d0808"
     fill-rule="evenodd"
     id="path2"
     style="stroke-width:0.119209" />
  <path
     d="m 98.761734,13.078324 c -1.475236,1.049877 -2.68222,1.956703 -2.68222,2.015236 0,0.05852 0.216498,0.337367 0.480897,0.619531 1.38606,1.478798 2.632988,3.235704 3.455179,4.868399 l 0.42759,0.84913 0.38114,-0.284435 c 0.20955,-0.156548 1.46745,-1.050714 2.79521,-1.987224 1.32777,-0.936512 2.414,-1.718287 2.414,-1.737122 0,-0.159145 -0.75542,-1.618987 -1.23562,-2.387767 -0.96751,-1.549009 -2.90942,-3.880987 -3.22222,-3.869424 -0.0724,0.0026 -1.33871,0.863794 -2.813944,1.913673 m -10.055572,0.01857 c -0.0413,0.344275 -0.07568,1.067878 -0.07624,1.608255 -0.0011,0.93973 0.02964,1.052383 0.705931,2.594717 0.388851,0.886799 1.072319,2.241853 1.518622,3.011112 2.275363,3.921994 6.254684,8.134142 7.684375,8.134142 0.144964,0 0.348342,0.07132 0.45182,0.158426 0.193774,0.162963 1.435978,0.481369 1.526098,0.391132 0.0785,-0.07832 -0.31696,-0.787981 -0.43881,-0.787981 -0.0593,0 -0.1439,-0.120627 -0.187413,-0.268228 -0.04351,-0.147555 -0.328897,-0.510678 -0.633931,-0.806914 -0.304961,-0.296357 -0.63957,-0.645043 -0.743772,-0.774863 -0.103943,-0.129937 -0.318649,-0.346312 -0.476821,-0.480901 -0.432384,-0.367878 -1.74465,-1.861335 -2.906809,-3.308303 -1.491067,-1.856329 -2.722998,-3.852257 -4.098078,-6.639376 -1.148829,-2.328759 -1.827122,-3.43383 -2.117384,-3.449805 -0.07291,-0.0041 -0.166306,0.274294 -0.207605,0.618577 m 5.942859,2.37108 c -0.458974,0.327822 -0.902919,0.635388 -0.986606,0.683546 -0.116153,0.06689 -0.0643,0.283005 0.220372,0.915529 0.779031,1.732114 2.551073,4.255782 3.952735,5.629194 l 0.641819,0.62895 0.887281,-0.615358 c 0.488049,-0.338557 0.931523,-0.654937 0.985523,-0.70322 0.11864,-0.106232 -0.787988,-1.941088 -1.54723,-3.131037 -0.645183,-1.011374 -2.074262,-2.797014 -2.805258,-3.505239 l -0.514134,-0.498295 -0.834471,0.59593 m -7.927458,1.787666 c -1.768686,1.317264 -3.189454,2.269747 -5.543238,3.716355 -0.852327,0.523807 -2.542148,1.597052 -3.755089,2.385026 -2.033725,1.321084 -2.952693,1.908071 -7.867833,5.026355 -0.950707,0.60308 -3.096479,1.970772 -4.768393,3.039126 -1.671914,1.068477 -4.032268,2.506264 -5.245211,3.194939 -1.212944,0.688788 -2.224108,1.267911 -2.247089,1.287105 -0.08398,0.07021 0.27665,0.985027 1.024474,2.598171 0.956884,2.063877 2.62165,4.821195 4.040136,6.691352 1.254192,1.653676 3.425855,4.017004 4.636052,5.045067 l 0.837333,0.711441 1.24884,-0.887153 c 0.68678,-0.487805 1.463289,-1.092917 1.725554,-1.344447 0.262263,-0.251554 2.756732,-2.242572 5.543261,-4.424463 2.786509,-2.181894 5.549199,-4.353178 6.139261,-4.825005 0.590114,-0.471953 3.460088,-2.71786 6.377737,-4.99095 5.585096,-4.351266 8.119703,-6.400242 8.074072,-6.526843 -0.0166,-0.04184 -0.246456,-0.258213 -0.514301,-0.480653 -0.913004,-0.758648 -2.969015,-3.016716 -3.949631,-4.337916 -1.260292,-1.697784 -2.565407,-3.939397 -3.31497,-5.693451 -0.326273,-0.763413 -0.646835,-1.386762 -0.712422,-1.385212 -0.06573,0.0015 -0.843398,0.542046 -1.728543,1.201156 m 5.006813,2.647881 c 0,0.09975 0.08149,0.568274 0.180732,1.041295 0.136666,0.649099 0.27582,0.965122 0.568022,1.289254 0.212902,0.236153 0.569716,0.684144 0.792977,0.995638 0.223415,0.311503 0.440367,0.566243 0.48245,0.566243 0.04213,0 0.19405,-0.15877 0.337474,-0.352859 0.275543,-0.372525 0.348934,-1.009105 0.131961,-1.143219 -0.07098,-0.04386 -0.223414,-0.23531 -0.339252,-0.425696 -0.300643,-0.494362 -2.154502,-2.189999 -2.154502,-1.970656 m -50.723658,26.1963 c -4.156734,2.943045 -4.881739,3.499519 -4.848142,3.721131 0.02221,0.143423 0.361452,1.038551 0.755195,1.989248 1.710169,4.130133 4.373921,8.189817 7.418287,11.306314 1.351486,1.383546 3.442177,3.237255 3.651024,3.237255 0.138602,0 9.722758,-6.737015 9.829316,-6.90951 0.03201,-0.05162 -0.496033,-0.553485 -1.173027,-1.115322 -2.964858,-2.460604 -6.109122,-6.380333 -8.257747,-10.294341 -0.846866,-1.542695 -2.308494,-4.844559 -2.308494,-5.214945 0,-0.103705 -0.0402,-0.1867 -0.08928,-0.184448 -0.04909,0.0023 -2.288835,1.56129 -4.977015,3.464591 m 9.035129,-2.656705 c -0.407078,0.307437 -0.742192,0.639322 -0.744686,0.737667 -0.0083,0.314828 1.362687,3.139985 2.204537,4.543196 1.580852,2.634652 3.702891,5.151641 5.795716,6.874339 0.172116,0.141764 0.305895,0.09051 1.043097,-0.399707 0.465151,-0.309334 0.845675,-0.595093 0.845675,-0.635148 0,-0.03996 -0.308385,-0.339016 -0.685451,-0.664597 -2.58101,-2.228502 -5.366574,-6.0686 -6.943957,-9.572762 -0.360633,-0.800974 -0.682483,-1.453168 -0.715251,-1.449117 -0.03281,0.004 -0.392685,0.258825 -0.79968,0.566129 M 30.367781,53.568503 c -2.743115,1.936083 -2.992026,2.140528 -2.927658,2.404218 0.153418,0.629426 1.1692,3.013741 1.908649,4.480133 0.956442,1.896505 2.301726,4.021419 3.761076,5.940333 1.176243,1.546628 4.213478,4.689228 5.391497,5.578409 l 0.715244,0.540021 3.064651,-2.155072 3.064653,-2.155068 -0.32285,-0.275859 c -4.280434,-3.657572 -7.21444,-7.318978 -9.617927,-12.002721 -0.471112,-0.917912 -1.093633,-2.29836 -1.383563,-3.067617 -0.289787,-0.769261 -0.555991,-1.399643 -0.591391,-1.400714 -0.03521,-0.0011 -1.413336,0.950217 -3.062381,2.113942"
     stroke="none"
     fill="#a51212"
     fill-rule="evenodd"
     id="path4"
     style="stroke-width:0.119209" />
  <path
     d="m 92.264824,4.7894435 -0.715275,0.1603344 1.15897,-0.044351 c 0.68412,-0.026084 1.465422,0.020512 1.907347,0.113707 1.503233,0.3172186 1.497743,0.3164993 0.986799,0.1125454 -0.471112,-0.1882204 -2.097343,-0.5284545 -2.443795,-0.5112899 -0.09841,0.00498 -0.500662,0.080944 -0.894046,0.1690411 m -2.039459,0.5332253 c -0.26918,0.133282 -0.617977,0.3811129 -0.774849,0.5506286 -0.280168,0.3026708 -0.274713,0.3018409 0.310875,-0.049702 0.32787,-0.1968167 0.756997,-0.442504 0.953704,-0.5459798 0.530239,-0.2787129 0.08094,-0.2374565 -0.489743,0.045074 m -2.371304,1.2133151 c -0.786793,0.4614595 -7.358216,4.1256043 -14.603168,8.1424903 -13.058682,7.240194 -14.787479,8.234282 -15.569477,8.952756 -1.413361,1.29843 0.03991,0.534299 15.331057,-8.061307 3.179913,-1.787548 6.935,-3.892549 8.344678,-4.677783 3.224379,-1.7961297 6.944541,-4.0174827 7.066849,-4.2195435 0.05098,-0.084632 0.292537,-0.3429669 0.536444,-0.5741106 0.243649,-0.2311331 0.416504,-0.4160424 0.383753,-0.4109168 -0.03281,0.00498 -0.703328,0.3868356 -1.490124,0.8484146 m 13.58679,2.2524638 c 0.58842,0.5502709 1.31809,1.2686285 1.62149,1.5964555 1.23309,1.332525 1.31166,1.407628 0.80966,0.77486 -0.54906,-0.692009 -2.77602,-2.8928567 -3.23225,-3.194219 -0.14777,-0.09763 0.21263,0.2726346 0.8011,0.8229035 M 94.145589,8.268941 c -0.480288,0.2634537 -1.028797,0.742677 -0.945333,0.8261217 0.05794,0.058294 1.508366,-0.8958584 1.508366,-0.9924175 0,-0.091784 -0.199859,-0.032802 -0.563033,0.1662942 M 104.6216,12.16614 c 0.10868,0.134942 0.68403,1.008393 1.27875,1.94085 1.09732,1.720552 2.32542,4.181633 2.7075,5.425823 0.1156,0.376224 0.23282,0.661252 0.26056,0.633478 0.0923,-0.0925 -0.47219,-1.627806 -1.07073,-2.911335 -0.67439,-1.446369 -2.40507,-4.298219 -2.98432,-4.91775 -0.21401,-0.229109 -0.30048,-0.306014 -0.1918,-0.171064 m 1.1735,13.255623 c -0.89668,0.664238 -0.74316,0.812535 0.17381,0.167754 0.39221,-0.275864 0.92005,-0.852107 0.76473,-0.834944 -0.0249,0.0027 -0.44666,0.303024 -0.93843,0.667218 m 3.6762,0.355723 c -0.041,0.401377 -0.28148,1.28186 -0.53432,1.956703 -0.37814,1.009349 -0.57589,1.353744 -1.1153,1.941925 -0.36064,0.393274 -0.8166,0.813368 -1.01331,0.933648 -0.19654,0.120283 -0.29502,0.218881 -0.21843,0.219099 0.0765,2.4e-4 0.49198,-0.304462 0.92315,-0.677111 0.62441,-0.539661 0.89266,-0.887871 1.31726,-1.710059 0.53525,-1.036291 0.84794,-2.30301 0.75591,-3.061182 -0.0221,-0.194442 -0.0713,-0.0294 -0.11505,0.396967 m -67.057431,8.191718 c -4.21622,2.999429 -5.803977,4.26055 -6.129166,4.868037 -0.173822,0.325092 -0.462297,0.517849 4.832144,-3.229982 2.539654,-1.797797 4.702831,-3.407128 4.807006,-3.576286 0.104216,-0.16916 0.405691,-0.535488 0.669951,-0.8142 0.264477,-0.278709 0.455974,-0.501871 0.425954,-0.496032 -0.03004,0.0059 -2.102745,1.467707 -4.605889,3.248463 m 63.534771,-2.743369 c -0.21069,0.07701 -1.12263,0.789998 -2.0266,1.584651 -0.90406,0.794531 -6.096126,5.34762 -11.538043,10.118029 -9.904882,8.682512 -13.333229,11.741189 -13.251705,11.822611 0.0249,0.02371 0.389128,-0.118248 0.811466,-0.315895 0.474941,-0.222308 1.22107,-0.756744 1.955053,-1.400473 3.703477,-3.248222 22.016459,-19.452498 23.121409,-20.458984 0.72121,-0.656962 1.38985,-1.265054 1.48582,-1.351242 0.15331,-0.137681 0.15331,-0.155675 0,-0.147695 -0.0959,0.005 -0.34688,0.072 -0.5574,0.149008 m -55.779014,2.508278 c -0.335694,0.270982 -0.752918,0.725512 -0.927449,1.009944 l -0.31708,0.517369 0.716219,-0.562669 c 0.601065,-0.472188 1.296382,-1.317741 1.173245,-1.426701 -0.01937,-0.0166 -0.309334,0.191094 -0.644919,0.462057 m 5.249508,4.078038 -0.466954,0.426413 0.566252,-0.38695 c 0.311507,-0.21278 0.566247,-0.404719 0.566247,-0.426416 0,-0.134365 -0.260565,0.01719 -0.665545,0.386954 m -23.832038,3.813519 c -1.714326,1.223444 -2.997985,2.233268 -3.425355,2.69485 -0.375861,0.406146 -0.662332,0.759602 -0.636335,0.785473 0.09513,0.09524 5.909326,-4.091392 5.980012,-4.306092 0.04017,-0.121924 0.261687,-0.430349 0.491987,-0.685451 0.230366,-0.254953 0.39923,-0.459437 0.375168,-0.45443 -0.02502,0.005 -1.277476,0.88954 -2.78548,1.96565 m 34.1123,10.135552 c -0.249775,0.169743 -0.426649,0.33605 -0.39304,0.369682 0.05738,0.05746 0.911123,-0.535372 0.911123,-0.632883 0,-0.07956 -0.05402,-0.05197 -0.518098,0.263212 m 2.020501,6.21654 c -0.272778,0.02806 -0.764728,0.240173 -1.192098,0.513913 -0.752807,0.482321 -0.660667,0.647902 0.13303,0.238789 0.247839,-0.127772 0.7056,-0.340477 1.016985,-0.472545 0.311349,-0.1322 0.566251,-0.269023 0.566251,-0.304118 0,-0.03517 -0.01383,-0.05482 -0.02964,-0.04383 -0.0166,0.01105 -0.238947,0.04158 -0.494342,0.06786 m 0.273884,4.853018 c -0.389444,0.107416 -1.921544,1.122835 -5.290286,3.506075 -2.60807,1.845124 -4.694821,3.354435 -4.63736,3.35408 0.417698,-0.0025 1.202329,-0.36834 2.123955,-0.989676 1.117339,-0.753528 7.775911,-5.438104 8.278624,-5.824461 0.325221,-0.249973 0.280403,-0.254281 -0.474933,-0.04604 m 44.400075,9.304665 c -3.6e-4,0.590083 0.0194,0.84651 0.0446,0.569824 0.0249,-0.276689 0.0249,-0.759486 6.1e-4,-1.072892 -0.0249,-0.313405 -0.0452,-0.08702 -0.0455,0.503068 M 55.660803,71.638133 c -0.48603,0.17437 -1.556654,0.849726 -3.27827,2.06805 -3.308539,2.341395 -3.191836,2.242567 -2.258427,1.912121 0.559319,-0.19812 1.520973,-0.800968 3.457068,-2.167351 2.623563,-1.851562 2.964272,-2.099994 2.855083,-2.081044 -0.02964,0.0051 -0.378496,0.125876 -0.775454,0.268232 m 57.574277,0.426773 c 0.29993,0.313167 0.31079,0.352017 0.11173,0.403402 -0.14058,0.03596 -0.0929,0.06178 0.13058,0.07055 l 0.35118,0.01384 -0.40436,-0.417235 c -0.22231,-0.229462 -0.43069,-0.417232 -0.46288,-0.417232 -0.0324,0 0.0909,0.155912 0.27361,0.346643"
     stroke="none"
     fill="#260808"
     fill-rule="evenodd"
     id="path6"
     style="stroke-width:0.119209" />
  <path
     d="m 59.814793,44.797365 -1.217268,0.85271 0.20401,0.351543 c 0.112005,0.193338 0.264437,0.375612 0.33854,0.405075 0.126112,0.0502 2.547523,-1.57464 2.547523,-1.709586 0,-0.111094 -0.490571,-0.754712 -0.574368,-0.753645 -0.04462,7.18e-4 -0.629068,0.384938 -1.29841,0.853899 m -2.506613,1.924041 c -0.448577,0.303288 -0.447028,0.297675 -0.176859,0.64874 l 0.206815,0.268587 0.440455,-0.313404 c 0.431549,-0.307082 0.43632,-0.319136 0.237563,-0.592707 -0.24452,-0.336406 -0.227287,-0.336169 -0.707987,-0.01105 M 22.503525,71.350754 c -5.059849,3.57879 -9.226464,6.534474 -9.258887,6.56821 -0.03245,0.03359 0.03703,0.188834 0.154639,0.344627 l 0.213748,0.283369 9.165895,-6.471763 c 5.041256,-3.559358 9.213002,-6.513616 9.270715,-6.564874 0.05795,-0.05162 0.0027,-0.221004 -0.120844,-0.379683 l -0.225359,-0.28657 -9.200006,6.5067"
     stroke="none"
     fill="#7d7d7d"
     fill-rule="evenodd"
     id="path8"
     style="stroke-width:0.119209" />
  <path
     d="m 90.655476,5.0284591 c -2.32565,0.7444622 -3.47198,3.2213991 -3.103265,6.7050599 0.905879,8.557459 9.899637,19.22016 16.573959,19.649313 1.54936,0.09966 2.46655,-0.177858 3.45075,-1.044276 0.38398,-0.33796 0.75208,-0.73314 0.81825,-0.878215 0.066,-0.145095 -0.23701,0.0782 -0.67375,0.496148 -0.68226,0.653028 -0.91711,0.79775 -1.67049,1.028778 C 101.17537,32.481108 93.061374,25.845429 89.354546,17.330766 87.235004,12.46225 87.185548,7.9235839 89.231713,6.0722597 c 0.775707,-0.7016673 0.935322,-0.78881 1.95924,-1.0700269 0.524997,-0.1441189 0.820389,-0.2615449 0.656477,-0.2610746 -0.163855,5.959e-4 -0.700358,0.129816 -1.192096,0.2872931 m 3.082172,0.811937 c -2.231731,0.4435797 -3.392114,2.7338319 -3.010764,5.9425967 0.815263,6.859199 7.67709,15.318548 13.321918,16.423379 0.93302,0.182616 1.15285,0.187873 1.90008,0.04553 1.63469,-0.311504 2.80128,-1.643779 3.06449,-3.499636 0.0688,-0.485303 0.14634,-0.903727 0.17239,-0.929718 0.12722,-0.127073 0.43954,0.609284 0.44561,1.050357 0.006,0.329616 0.0421,0.444774 0.11007,0.337608 0.21567,-0.340348 0.11228,-0.916964 -0.23175,-1.293545 -0.29827,-0.326637 -0.35451,-0.515222 -0.47281,-1.58692 C 108.3921,16.485334 103.04497,9.0269887 97.730371,6.5591133 96.803866,6.1288868 94.95945,5.6303506 94.520296,5.6913858 c -0.06043,0.00862 -0.412703,0.075455 -0.782857,0.1490274 m 0.0017,0.2384248 c -3.259058,0.6493361 -3.793842,5.424038 -1.218792,10.883239 2.642883,5.603206 7.470014,10.211609 11.528283,11.005901 0.92767,0.18155 1.15551,0.187404 1.88528,0.04825 2.22457,-0.423909 3.22166,-2.428299 2.85913,-5.747927 -0.73638,-6.744752 -7.54908,-15.1144576 -13.158154,-16.1655292 -0.552528,-0.1034823 -1.054158,-0.1813191 -1.11459,-0.172977 -0.06043,0.00862 -0.412012,0.075455 -0.781193,0.1490274 m 0.928639,1.7554801 c -0.716574,0.1684601 -1.470327,0.7835646 -1.874576,1.5300535 -1.653651,3.0530772 0.711227,9.3257632 5.155229,13.6735772 2.393255,2.341394 5.070565,3.607043 6.897585,3.2605 1.42516,-0.270265 2.36333,-1.377348 2.59724,-3.064763 0.64564,-4.658822 -4.01417,-12.174981 -9.144807,-14.750626 -1.32596,-0.6656664 -2.594487,-0.8922822 -3.630655,-0.6487374 m -5.81e-4,0.2385355 c -1.107829,0.2603513 -1.901636,1.3113044 -2.117886,2.8039269 -0.133029,0.918392 -0.04684,1.832729 0.172709,1.832729 0.299572,0 2.260336,1.483086 3.279566,2.480629 2.875353,2.813944 4.847314,6.246702 5.549454,9.660269 0.11307,0.549915 0.18294,0.65887 0.5095,0.795124 0.37767,0.15758 0.38399,0.154015 2.80145,-1.560451 1.3326,-0.945093 2.42218,-1.758817 2.42113,-1.808407 C 107.17943,17.478237 102.90965,11.036274 98.298381,8.7214608 96.972061,8.0556751 95.703899,7.8291783 94.667149,8.0728424 m -2.04315,5.2625076 c 0.69845,3.365881 2.723578,6.931199 5.44347,9.583254 0.854128,0.832918 2.197861,1.854661 2.951641,2.24448 l 0.37825,0.195631 -0.0779,-0.453592 c -0.16577,-0.96501 -0.79095,-2.782717 -1.350631,-3.927366 -1.510525,-3.088723 -3.612191,-5.600823 -6.182478,-7.38992 -1.089918,-0.758652 -1.275755,-0.798944 -1.162404,-0.252479 m -34.456676,9.679219 c -1.691956,1.277448 -2.440467,3.124599 -2.440467,6.022346 0,0.854734 -0.01384,1.554017 -0.03043,1.554017 -0.0166,0 -0.513051,-0.191939 -1.102671,-0.426531 -3.191003,-1.269701 -5.895979,-1.02115 -7.668048,0.704765 -0.954616,0.929717 -1.458163,1.907472 -1.792554,3.480921 -0.319491,1.503826 -0.322573,2.781397 -0.01105,4.631888 1.48621,8.829969 8.83082,18.952052 16.45224,22.673776 4.961965,2.423058 8.816043,1.518614 10.326045,-2.423529 0.37407,-0.976325 0.613234,-2.943045 0.511055,-4.203331 -0.03991,-0.491737 -0.06845,-0.902416 -0.06351,-0.912546 0.0056,-0.01025 0.357669,0.143028 0.783801,0.340714 0.426179,0.197647 1.364962,0.490073 2.086173,0.64993 1.842505,0.408414 3.058555,0.319728 4.413373,-0.321506 0.526081,-0.249065 1.062529,-0.577689 1.192093,-0.730515 l 0.235903,-0.277756 -0.24784,0.208634 c -0.136388,0.114769 -0.28242,0.208633 -0.324628,0.208633 -0.04245,0 -0.446442,0.179901 -0.898259,0.399708 -3.535878,1.720793 -9.577391,-0.941875 -14.787341,-6.517422 -4.350557,-4.655852 -7.686761,-10.859043 -8.602623,-15.995661 -0.335221,-1.880054 -0.328699,-4.167803 0.0166,-5.619421 0.357274,-1.504186 1.08493,-2.621418 2.217293,-3.404147 0.479372,-0.331399 0.871562,-0.622752 0.871562,-0.64731 0,-0.161397 -0.411651,0.05757 -1.135825,0.604393 m 46.769947,1.239305 c -1.16013,0.830055 -2.14208,1.543288 -2.18214,1.585127 -0.0399,0.04184 0.27084,0.135771 0.69058,0.208993 1.5029,0.261655 2.70215,-0.235433 3.32916,-1.380212 0.3195,-0.58329 0.58737,-1.95539 0.37755,-1.933815 -0.0582,0.0059 -1.05499,0.689983 -2.21515,1.519923 M 50.065211,29.63912 c -2.50007,0.265379 -4.086602,1.858001 -4.693046,4.711045 -0.319452,1.503826 -0.322573,2.781396 -0.01105,4.631888 1.480809,8.798021 8.676304,18.75464 16.213792,22.435356 5.762476,2.814063 9.942803,1.127965 10.534912,-4.249105 0.141092,-1.281143 0.07541,-3.020768 -0.120857,-3.203639 -0.05987,-0.05552 -0.229224,-0.137415 -0.376678,-0.182035 -0.233967,-0.0707 -0.268074,-0.03833 -0.267204,0.254873 0.0017,0.670913 -0.62549,1.942997 -1.312241,2.660875 -1.208313,1.263144 -2.795346,1.632096 -4.881655,1.134877 -4.64947,-1.108263 -10.416968,-6.736979 -13.393386,-13.071653 -1.703377,-3.625165 -2.336873,-7.05566 -1.752857,-9.491828 0.606306,-2.529148 2.338067,-3.844983 4.858759,-3.692039 0.944356,0.05736 0.983364,0.04959 0.981668,-0.195382 -0.0027,-0.425696 -0.15271,-0.542643 -1.258959,-0.982764 -0.860338,-0.34237 -3.328553,-0.932815 -3.617178,-0.865342 -0.03794,0.0088 -0.444777,0.05601 -0.90372,0.104798 m 3.004418,2.322556 c -0.85388,0.234746 -1.666429,0.852471 -2.161241,1.642951 -3.115326,4.977475 2.388715,16.887943 10.229128,22.135189 3.587354,2.401001 7.228846,2.724654 8.848923,0.786544 0.529295,-0.633244 1.015543,-1.704101 1.112817,-2.451068 l 0.07011,-0.536447 -1.25375,-0.818015 c -0.689494,-0.449896 -1.583927,-1.107216 -1.987678,-1.460794 -0.830538,-0.727179 -1.001598,-0.732778 -1.352683,-0.0447 -0.325815,0.638602 -1.04878,1.170162 -1.780496,1.308921 -3.215561,0.609757 -8.52456,-4.431975 -10.089916,-9.582062 -0.567552,-1.867419 -0.579831,-3.33775 -0.03754,-4.504813 0.311112,-0.66972 1.059178,-1.248601 1.757766,-1.360302 0.918964,-0.146976 0.920517,-0.155579 0.331268,-1.911642 -0.288741,-0.86069 -0.588286,-1.94061 -0.665763,-2.399806 l -0.140816,-0.83482 -0.438706,-0.07259 c -0.696171,-0.115026 -1.819385,-0.06746 -2.441048,0.103443 m -3.727703,2.368094 c -0.07011,0.07604 -0.318384,0.43738 -0.55217,0.802757 -1.728045,2.701406 -0.653371,8.494514 2.541315,13.699568 3.880888,6.322873 9.822858,10.790251 13.894351,10.446091 0.866076,-0.0732 2.423172,-0.666378 2.423172,-0.923039 0,-0.107496 -0.375137,0.04217 -1.096849,0.437862 -0.177136,0.09703 -0.741945,0.208832 -1.255276,0.248432 C 58.288321,59.58185 48.218111,47.56958 48.218111,38.668912 c 0,-1.606702 0.243095,-2.636319 0.862144,-3.650553 0.438316,-0.718237 0.543596,-0.994805 0.262263,-0.688672 m -12.335369,3.483636 c -0.292289,0.30077 -0.880101,0.725389 -1.306279,0.943782 -1.508971,0.773193 -2.630492,2.35749 -3.025538,4.274136 -0.245603,1.191863 -0.250578,3.468644 -0.01093,4.96425 1.444937,8.999958 9.75635,19.896788 17.534176,22.988367 3.426546,1.361971 6.221999,1.060849 8.023259,-0.864148 0.159113,-0.169864 0.343006,-0.308859 0.409019,-0.308859 0.176028,0 1.56142,-0.922083 1.821048,-1.212004 0.122555,-0.136705 -0.12722,-0.0048 -0.555411,0.293485 -0.573732,0.399831 -1.043429,0.610591 -1.788115,0.802163 C 52.487993,71.140958 43.59067,64.523038 38.471564,55.088438 36.238053,50.972013 35.103061,47.109976 35.108077,43.64432 c 0.0027,-2.653844 0.601649,-4.363072 1.998297,-5.714791 0.374087,-0.361921 0.624183,-0.659227 0.555878,-0.660541 -0.06818,-0.0013 -0.363359,0.243662 -0.655647,0.544314 m 19.138122,-0.461106 c -0.40996,0.09954 -1.00565,0.624304 -1.247873,1.098993 -0.40364,0.791198 -0.56755,3.106961 -0.219818,3.106961 0.06517,0 0.431167,-0.219344 0.81324,-0.487331 l 0.694763,-0.487327 -0.0027,-1.045583 c -0.0027,-0.809794 0.05351,-1.173979 0.248115,-1.6141 0.138325,-0.312567 0.251435,-0.588303 0.251435,-0.612738 0,-0.05376 -0.213455,-0.0373 -0.536447,0.04115 m 0.938202,1.523976 -0.730771,0.529766 0.0549,0.569462 c 0.322377,3.344903 2.898603,7.550614 5.852126,9.553579 0.911122,0.617862 1.929882,1.103165 2.10297,1.001836 0.07011,-0.04114 0.435961,-0.290285 0.81313,-0.553849 l 0.685807,-0.479225 -0.334351,-0.363715 c -0.18415,-0.200063 -0.779528,-0.842096 -1.323236,-1.426823 -1.982912,-2.132176 -4.672894,-6.072169 -5.776649,-8.461012 -0.23037,-0.498655 -0.462657,-0.90516 -0.516074,-0.903252 -0.05351,0.0021 -0.426037,0.241849 -0.827875,0.533226 m -21.561457,0.196571 c -1.21067,0.624419 -2.244231,2.19286 -2.608287,3.958471 -0.245603,1.191859 -0.250578,3.468403 -0.01093,4.964245 0.956304,5.95619 5.07711,13.185175 10.301004,18.070264 4.597439,4.299289 9.544406,6.329666 12.75864,5.236397 0.756051,-0.257165 2.253297,-1.188637 2.121817,-1.320007 -0.02489,-0.02529 -0.257244,0.01265 -0.515715,0.0843 -0.674219,0.186462 -2.474424,0.02648 -3.71883,-0.330913 -5.367907,-1.540545 -11.756232,-7.53226 -15.616577,-14.64704 -2.202655,-4.059576 -3.364703,-7.974536 -3.366504,-11.341966 -9.42e-4,-1.767762 0.241723,-3.034961 0.789787,-4.125487 0.222322,-0.442508 0.390389,-0.802285 0.373229,-0.799419 -0.0166,0.0027 -0.245886,0.115996 -0.508172,0.251175 m 19.938852,3.334646 c -0.494946,0.32376 -0.556097,0.408652 -0.492812,0.684025 0.159667,0.694035 1.15767,2.716785 1.883642,3.817686 0.795468,1.206403 2.755152,3.375062 3.374821,3.734714 0.349843,0.203022 0.357155,0.201244 0.982166,-0.236258 l 0.629565,-0.44072 -0.402727,-0.180969 c -1.156669,-0.519967 -3.022543,-2.332668 -3.90589,-3.794652 -0.652685,-1.080164 -1.208782,-2.509721 -1.292694,-3.322732 -0.03596,-0.34846 -0.09814,-0.63288 -0.138325,-0.63205 -0.03991,7.15e-4 -0.327001,0.167769 -0.637908,0.370988 m -27.417501,1.80316 c -0.841976,0.876432 -1.434445,2.023346 -1.697531,3.286012 -0.236527,1.13464 -0.234496,3.510845 0.005,5.000368 0.312914,1.95241 1.320829,5.079756 2.227657,6.912007 0.137776,0.278231 0.22758,0.525119 0.199856,0.548601 -0.320447,0.271908 -15.995903,11.273173 -16.24481,11.400846 -0.842575,0.432135 -1.149061,1.17362 -1.150016,2.782589 -0.0013,1.976138 0.864388,3.825313 2.611405,5.578294 1.051906,1.055483 1.628759,1.420977 2.961405,1.876713 1.023891,0.35024 1.667979,0.333561 2.247815,-0.05818 0.255115,-0.172273 0.490547,-0.352728 0.523327,-0.401256 0.05639,-0.08331 15.309248,-10.893494 15.824712,-11.215356 0.221479,-0.138404 0.34773,-0.05521 1.418242,0.934962 4.003879,3.70348 8.101709,5.658396 11.307738,5.394464 1.072149,-0.08822 2.29657,-0.456331 2.555478,-0.768305 0.08177,-0.09873 -0.178241,-0.04517 -0.674606,0.138879 -3.807217,1.411555 -8.985432,-0.776296 -14.159481,-5.982539 -1.925112,-1.937154 -3.435138,-3.82591 -4.927756,-6.163847 -2.258204,-3.537305 -3.957039,-7.691876 -4.477269,-10.9494 -0.224232,-1.403694 -0.258808,-3.719693 -0.07229,-4.827988 0.124725,-0.740287 0.887044,-2.684239 1.089213,-2.777221 0.137524,-0.06321 1.313946,-1.454721 1.229898,-1.454721 -0.04462,0 -0.40353,0.33534 -0.797274,0.745066 m 34.319009,6.732481 -0.809217,0.563264 0.593913,0.290759 0.593912,0.290878 0.851022,-0.581503 0.851027,-0.581502 -0.617728,-0.272658 c -0.339726,-0.149985 -0.625849,-0.27262 -0.635746,-0.27262 -0.01105,0 -0.382172,0.253451 -0.827183,0.563387 m 1.486547,0.605108 c -0.407106,0.29147 -0.715275,0.554802 -0.684755,0.585316 0.03043,0.03083 0.270247,0.103705 0.532732,0.162709 0.967508,0.217448 2.207753,-0.245704 2.580903,-0.963686 l 0.15524,-0.298861 -0.921932,-0.0079 c -0.905408,-0.0075 -0.935097,0.0017 -1.662157,0.522255 m -43.349371,15.590537 -8.819483,6.240029 0.02411,0.670552 c 0.03794,1.056079 0.533462,2.360468 1.446726,3.808149 0.70429,1.116397 2.379901,2.756006 3.32869,3.257165 l 0.746373,0.394109 8.730782,-6.163967 c 4.801869,-3.390083 8.80076,-6.228104 8.886251,-6.306661 0.125291,-0.115007 0.0194,-0.293841 -0.550751,-0.921967 -1.412891,-1.558231 -3.503137,-4.51522 -4.543573,-6.426867 l -0.430224,-0.790357 -8.81948,6.240021"
     stroke="none"
     fill="#1c1c1c"
     fill-rule="evenodd"
     id="path10"
     style="stroke-width:0.119209" />
  <path
     d="m 57.082511,38.876226 -0.730774,0.52977 0.0549,0.56946 c 0.16022,1.662021 1.167316,4.304779 2.143524,5.624905 0.03281,0.0441 1.613256,-1.008393 2.277722,-1.516701 l 0.272776,-0.208752 -1.127618,-1.860981 c -0.620161,-1.023526 -1.31609,-2.269027 -1.546527,-2.767682 -0.230367,-0.498651 -0.462658,-0.90516 -0.516079,-0.903248 -0.05351,0.002 -0.426037,0.241847 -0.827875,0.533222 m -1.622571,3.531227 c -0.667344,0.436545 -0.667344,0.439407 0.05517,2.071385 0.554463,1.252532 1.262089,2.444031 1.450784,2.443201 0.07264,-3.59e-4 0.285503,-0.123385 0.472913,-0.27337 l 0.340952,-0.272736 -0.371581,-0.585799 c -0.50832,-0.801443 -1.09389,-2.361898 -1.17256,-3.124721 -0.03557,-0.346642 -0.09785,-0.629778 -0.137772,-0.628948 -0.03991,7.15e-4 -0.327,0.167768 -0.637912,0.370988 m 5.018126,3.197796 -1.269104,0.898242 0.252542,0.354785 c 0.540029,0.758289 1.79147,1.971245 2.637146,2.55585 1.015683,0.702026 2.076743,1.225713 2.262972,1.116757 0.07011,-0.04114 0.435937,-0.290286 0.813129,-0.55385 l 0.685804,-0.479217 -0.334391,-0.363715 c -0.183775,-0.200019 -0.780442,-0.843285 -1.325593,-1.429439 -0.545154,-0.586035 -1.320142,-1.500253 -1.72234,-2.03157 l -0.731129,-0.965959 -1.269104,0.898132 M 57.78379,47.31007 c -0.210965,0.147572 -0.384583,0.307081 -0.385768,0.354546 -0.0027,0.134096 1.321442,1.633056 2.04051,2.309213 0.99803,0.938416 1.035343,0.947596 1.770382,0.432969 l 0.62837,-0.439882 -0.402695,-0.180968 c -0.694043,-0.312101 -1.444362,-0.898128 -2.352125,-1.837259 -0.482201,-0.498773 -0.88526,-0.906832 -0.895737,-0.906832 -0.01105,0 -0.191797,0.120619 -0.402944,0.268232 m -37.283739,19.827773 -8.820912,6.240976 0.02411,0.671742 c 0.03482,0.968102 0.712157,2.811561 1.320364,3.59405 l 0.205176,0.263924 8.88539,-6.284008 c 4.886875,-3.456219 9.041102,-6.397952 9.231348,-6.537309 l 0.346065,-0.253293 -0.824939,-1.293903 C 30.412941,62.828328 29.879626,61.942479 29.681368,61.5715 l -0.360506,-0.67473 -8.820899,6.2411 m 2.49231,4.771839 c -4.976517,3.514655 -9.12549,6.463779 -9.219904,6.553544 -0.147696,0.140539 -0.02316,0.309334 0.894073,1.210217 0.658511,0.64695 1.350882,1.197696 1.812106,1.441243 l 0.74637,0.394108 8.730782,-6.163966 c 4.801894,-3.390087 8.80076,-6.228109 8.88625,-6.306665 0.125291,-0.115007 0.0166,-0.295976 -0.560041,-0.932224 -0.393523,-0.434277 -1.019841,-1.193878 -1.391797,-1.688122 -0.371925,-0.494124 -0.715359,-0.898483 -0.763036,-0.898483 -0.04769,0 -4.158395,2.875693 -9.134803,6.390348"
     stroke="none"
     fill="#797979"
     fill-rule="evenodd"
     id="path12"
     style="stroke-width:0.119209" />
  <path
     d="m 91.728372,19.903547 c 0,0.09975 0.0815,0.568272 0.180732,1.041295 0.136665,0.649096 0.275819,0.96512 0.568021,1.289251 0.212902,0.236152 0.569713,0.684145 0.792978,0.995641 0.223414,0.311504 0.440366,0.566243 0.482446,0.566243 0.04213,0 0.19405,-0.158768 0.337472,-0.352858 0.275544,-0.37253 0.348935,-1.009109 0.131963,-1.14322 -0.07098,-0.04384 -0.223414,-0.23531 -0.339252,-0.425699 -0.30064,-0.494361 -2.154475,-2.189999 -2.154475,-1.970652 M 112.47583,72.04605 c -0.006,0.697731 0.10841,0.924587 0.30337,0.608803 0.0538,-0.08664 0.14635,-0.01818 0.25475,0.189387 0.0937,0.179033 0.19765,0.298625 0.23037,0.265584 0.0328,-0.03281 0.002,-0.168321 -0.0688,-0.300758 -0.16801,-0.313761 -0.16327,-0.350712 0.0504,-0.396727 0.13082,-0.02806 0.0519,-0.183341 -0.29301,-0.574946 l -0.4722,-0.536444 -0.006,0.745057"
     stroke="none"
     fill="#da7171"
     fill-rule="evenodd"
     id="path14"
     style="stroke-width:0.119209" />
  <path
     d="m 92.014701,5.9141854 c -2.31384,0.3392717 -4.046934,1.9275006 -4.27832,3.9205661 -0.107815,0.9291205 0.127219,2.9293345 0.512751,4.3648575 0.319808,1.190665 0.320163,1.191379 0.348302,0.596049 0.07232,-1.536731 0.177689,-2.32423 0.309848,-2.317316 0.296569,0.01553 0.966421,1.10376 2.123814,3.449806 1.375112,2.787119 2.607014,4.783044 4.098106,6.639377 1.162159,1.446964 2.474424,2.940421 2.90678,3.3083 0.158284,0.134583 0.372806,0.350954 0.476854,0.480894 0.104217,0.129828 0.438814,0.478506 0.743741,0.774863 0.305066,0.296233 0.590312,0.659346 0.633943,0.806928 0.04351,0.147442 0.12809,0.268228 0.18769,0.268228 0.12168,0 0.51712,0.709656 0.43882,0.787975 -0.0901,0.09028 -1.332425,-0.228174 -1.526135,-0.391127 -0.103385,-0.08711 -0.307319,-0.158427 -0.452872,-0.158427 -0.145834,0 -0.436435,-0.08271 -0.646361,-0.183802 l -0.381461,-0.183802 0.417252,0.367043 c 1.147714,1.009469 4.483447,2.620467 5.424007,2.619512 0.41271,-4.76e-4 1.91608,-0.373726 2.27179,-0.564099 0.13248,-0.07093 0.31088,-0.253771 0.39612,-0.406505 0.0854,-0.152609 0.40509,-0.438335 0.71062,-0.635028 0.48362,-0.311377 0.651,-0.542524 1.29555,-1.788142 0.75758,-1.464134 1.03295,-2.28549 0.39091,-1.165874 -0.21207,0.369434 -0.61715,0.818734 -0.99742,1.105792 -2.20682,1.666187 -6.11297,0.367161 -9.825616,-3.267537 C 95.290275,22.087867 93.539326,19.64264 92.29384,16.941471 90.076776,12.133034 90.110982,8.0113638 92.38091,6.4479289 92.739251,6.2011572 93.004126,5.9533294 92.969475,5.8973007 92.900435,5.785475 92.891575,5.7857278 92.01483,5.9142157 m 1.724608,0.1646304 c -3.259082,0.6493333 -3.79387,5.4240349 -1.218793,10.8832369 2.642861,5.603209 7.470019,10.211608 11.528255,11.005903 0.9277,0.181551 1.15551,0.187404 1.88531,0.04825 2.22456,-0.423929 3.22162,-2.428319 2.85909,-5.747946 C 108.05695,15.523535 101.24426,7.1538328 95.635182,6.1027615 95.082657,5.9992786 94.581024,5.9214412 94.520596,5.9297842 c -0.06043,0.00862 -0.411987,0.075454 -0.781173,0.1489996 m 0.928644,1.7554801 c -0.716579,0.1684601 -1.470356,0.7835647 -1.874581,1.5300562 -1.65367,3.0530779 0.711204,9.3257619 5.155233,13.6735759 2.393231,2.341394 5.070551,3.607042 6.897581,3.260504 1.42512,-0.27026 2.36332,-1.377352 2.5972,-3.064763 0.64561,-4.658828 -4.01417,-12.17499 -9.14481,-14.7506318 C 96.972698,7.8173389 95.704203,7.5907204 94.668035,7.8342651 m -0.01937,1.897579 c -1.180177,0.8418579 -2.164372,1.6211299 -2.187016,1.7317569 -0.07398,0.360728 0.111413,1.245862 0.261116,1.245862 0.175476,0 1.855729,1.17731 2.661124,1.864793 l 0.578503,0.493765 2.822426,-1.997714 2.822402,-1.997714 -0.37996,-0.358344 C 100.21541,9.75962 97.52082,8.1585158 96.979495,8.1903447 96.877772,8.1964256 95.82873,8.8899853 94.648577,9.7318441 m -9.478121,1.1434589 c -1.278032,0.76151 -3.208743,1.895669 -4.290599,2.520447 -1.081823,0.624897 -3.281234,1.895788 -4.887589,2.824312 -1.606352,0.928644 -4.261737,2.45977 -5.900884,3.402836 -1.639119,0.942947 -4.562732,2.633938 -6.49691,3.757725 -1.934178,1.123787 -4.439954,2.521878 -5.56841,3.106839 l -2.051682,1.063589 -0.03478,1.430513 c -0.02489,1.068238 0.03201,1.807815 0.22788,2.920638 0.274714,1.560569 0.962267,3.933912 1.139651,3.933912 0.234521,0 4.644064,-2.601746 7.479076,-4.412898 3.213179,-2.052671 5.856427,-3.734477 8.702309,-5.537284 0.950707,-0.602131 2.801416,-1.791007 4.112741,-2.641685 1.311296,-0.850798 2.732866,-1.75536 3.159041,-2.010228 1.720565,-1.028782 4.210486,-2.683648 5.900863,-3.921997 0.983499,-0.720385 1.799842,-1.315837 1.814034,-1.323108 0.01384,-0.0075 -0.15607,-0.669836 -0.378259,-1.472356 -0.429531,-1.550796 -0.732569,-3.814348 -0.611796,-4.5697795 0.03991,-0.2508187 0.0585,-0.4559764 0.04074,-0.4559764 -0.0166,0 -1.07786,0.6229879 -2.355809,1.3845009 m 7.391951,2.166752 c 0,0.05175 0.0826,0.413896 0.183814,0.804665 0.387784,1.498224 0.665434,2.319816 0.783911,2.319816 0.0679,0 0.521564,-0.278116 1.008397,-0.617981 l 0.88513,-0.618103 -0.268351,-0.287293 c -0.356667,-0.381829 -2.247665,-1.69528 -2.440771,-1.69528 -0.08371,0 -0.152196,0.0423 -0.152196,0.09417 m 10.669252,6.396426 c -1.508,1.074082 -2.72893,1.997597 -2.71321,2.052433 0.0166,0.05482 0.21899,0.656011 0.45145,1.3361 0.23259,0.680093 0.48792,1.556878 0.56745,1.94848 0.12809,0.629666 0.1882,0.73028 0.52295,0.869991 0.37766,0.157584 0.38387,0.154142 2.80144,-1.560454 1.33264,-0.945093 2.42221,-1.758817 2.42115,-1.808407 -0.001,-0.04948 -0.0427,-0.488879 -0.0923,-0.976206 -0.11615,-1.140002 -0.91969,-3.829967 -1.14071,-3.81864 -0.0421,0.0023 -1.31021,0.882628 -2.81824,1.956703 m -3.789547,3.200778 c -0.500192,0.341058 -0.894655,0.67389 -0.876554,0.739455 0.04213,0.151884 1.779441,1.422291 2.377761,1.738675 l 0.4536,0.239721 -0.0779,-0.452756 c -0.11335,-0.659469 -0.76066,-2.757678 -0.87212,-2.826578 -0.0524,-0.03244 -0.504519,0.220288 -1.004848,0.561474 m 5.424538,1.660232 c -1.19892,0.854853 -2.1558,1.578336 -2.12648,1.607781 0.0535,0.05328 4.48503,-3.045449 4.48503,-3.136168 0,-0.131017 -0.34431,0.09202 -2.35855,1.528387 m -9.272478,4.861247 c -0.782247,0.652193 -3.809476,3.045327 -6.727129,5.318297 -2.917648,2.272848 -5.787619,4.51852 -6.37771,4.990468 -0.590086,0.471832 -3.352752,2.642996 -6.139284,4.824887 -2.786528,2.181776 -5.307806,4.193795 -5.602865,4.471196 -0.295027,0.277282 -1.019229,0.843169 -1.609319,1.257422 -0.590086,0.414251 -1.121768,0.795846 -1.181371,0.848181 -0.151367,0.132435 0.231201,0.441663 1.956247,1.581429 1.548026,1.022818 3.82184,2.120502 4.793644,2.314217 l 0.56184,0.112039 1.670942,-1.385336 c 0.919106,-0.761977 6.43304,-5.465749 12.253319,-10.452881 5.820193,-4.987012 11.293464,-9.665511 12.162614,-10.396386 1.765,-1.48416 1.7383,-1.355291 0.37277,-1.803401 -0.8693,-0.285281 -2.961898,-1.465203 -3.800891,-2.143149 -0.295027,-0.238437 -0.620612,-0.498654 -0.723478,-0.578168 -0.157177,-0.121595 -0.413789,0.04434 -1.609324,1.041178 m -45.529842,0.478269 c -2.500069,0.265378 -4.086601,1.857997 -4.693045,4.711044 -0.319492,1.503826 -0.322575,2.781393 -0.01105,4.631885 1.480804,8.798026 8.676302,18.754644 16.213788,22.43536 5.762479,2.814063 9.942802,1.127961 10.534915,-4.249109 0.141092,-1.281142 0.07541,-3.020769 -0.120856,-3.203634 -0.05987,-0.05553 -0.229224,-0.137416 -0.376679,-0.182036 -0.233967,-0.0707 -0.268073,-0.03833 -0.267204,0.254874 0.0017,0.713828 -0.624882,1.953488 -1.3857,2.740629 -0.401005,0.414847 -0.798688,0.754238 -0.883679,0.754238 -0.16437,0 -1.255051,0.661493 -1.534475,0.930785 -0.09173,0.08857 -0.464072,0.292418 -0.82721,0.452998 -5.107633,2.258902 -14.605524,-5.856765 -17.803094,-15.212093 -1.208067,-3.534685 -1.254082,-6.79888 -0.120897,-8.572839 0.514383,-0.805379 0.495311,-0.78559 1.431355,-1.4745 0.413648,-0.304339 0.84279,-0.657323 0.953672,-0.784284 0.110616,-0.127072 0.476352,-0.415326 0.81241,-0.64063 0.777007,-0.521185 1.785262,-0.743153 2.968572,-0.653627 0.856015,0.06474 0.890719,0.05723 0.889055,-0.191691 -0.0027,-0.430108 -0.150498,-0.54586 -1.258959,-0.986817 -0.860365,-0.342365 -3.328581,-0.932814 -3.617182,-0.865344 -0.03794,0.0088 -0.444778,0.05602 -0.903748,0.104798 m 3.004445,2.32256 c -0.85388,0.234714 -1.666424,0.852472 -2.161268,1.64295 -3.115295,4.977472 2.388719,16.887942 10.229135,22.135192 3.587379,2.400998 7.22887,2.72465 8.848945,0.786544 0.52927,-0.633245 1.015517,-1.704105 1.112815,-2.451072 l 0.07011,-0.536444 -1.253719,-0.818013 c -0.689494,-0.449901 -1.583927,-1.107216 -1.987705,-1.460795 -0.830535,-0.727178 -1.001604,-0.732778 -1.352685,-0.0447 -0.325774,0.638603 -1.048783,1.170157 -1.780495,1.308922 -3.215565,0.609755 -8.524559,-4.431976 -10.089888,-9.582067 -0.567551,-1.867419 -0.579831,-3.337748 -0.03754,-4.504811 0.311113,-0.66972 1.059177,-1.248601 1.757735,-1.360301 0.918995,-0.146976 0.920548,-0.15558 0.331268,-1.911646 -0.288704,-0.860692 -0.588312,-1.940612 -0.66579,-2.399805 l -0.140815,-0.834827 -0.438679,-0.07259 c -0.696206,-0.115027 -1.819388,-0.06746 -2.441076,0.103476 m -13.054407,6.63016 -4.910817,3.471029 8.04e-4,1.565577 c 4.73e-4,0.994085 0.08346,2.046233 0.2273,2.88189 0.291601,1.693489 0.702162,3.062016 0.886088,2.953894 0.547759,-0.321863 9.733817,-6.873384 9.733817,-6.94217 0,-0.04802 -0.127219,-0.512483 -0.282657,-1.032237 -0.462543,-1.546267 -0.812406,-3.923425 -0.768913,-5.224119 0.02214,-0.629905 0.03557,-1.145128 0.03201,-1.145009 -0.0027,1.19e-4 -2.216455,1.562125 -4.917384,3.471145 m 8.888627,-1.466636 -0.684397,0.558735 -0.0011,1.139289 c -0.0013,1.276497 0.322456,3.216627 0.740391,4.438407 l 0.276926,0.809435 0.84279,-0.630616 0.84268,-0.630505 -0.335102,-0.997422 c -0.415793,-1.237039 -0.819074,-3.443488 -0.819074,-4.480615 0,-0.429272 -0.0402,-0.777123 -0.08928,-0.772952 -0.04909,0.0041 -0.397321,0.258901 -0.773795,0.566244 m 6.459484,1.874094 c -0.548589,0.385879 -0.788539,0.636579 -0.839099,0.876787 -0.09785,0.464559 0.0166,1.682166 0.15607,1.682166 0.06351,0 0.42795,-0.219344 0.810023,-0.487327 l 0.694763,-0.487327 -0.0027,-1.062396 c -0.0017,-0.58437 -0.01384,-1.062398 -0.02766,-1.062398 -0.01384,0 -0.369052,0.243196 -0.791647,0.540495 m -19.842001,0.07354 c -1.210697,0.624419 -2.24426,2.192861 -2.608316,3.958473 -0.245602,1.191859 -0.250577,3.468403 -0.01093,4.964245 0.956305,5.956186 5.077141,13.18517 10.301003,18.070262 4.597439,4.299295 9.544406,6.329672 12.758664,5.236399 0.756029,-0.257167 2.253301,-1.188639 2.121794,-1.320008 -0.0249,-0.02529 -0.256969,0.01265 -0.515684,0.0843 -0.674251,0.186423 -2.474428,0.02648 -3.718862,-0.330913 -5.367875,-1.540545 -11.756203,-7.532257 -15.616577,-14.64704 -2.202626,-4.059577 -3.364676,-7.974541 -3.366476,-11.341971 -9.45e-4,-1.767762 0.241726,-3.034953 0.789759,-4.125484 0.222605,-0.442506 0.390416,-0.802279 0.373228,-0.799418 -0.0166,0.0027 -0.245886,0.115994 -0.508173,0.251173 m -5.960485,6.912009 c -1.573559,1.112109 -2.933611,2.093915 -3.022303,2.181894 -0.22004,0.218158 -0.187652,2.847913 0.05382,4.358774 0.18396,1.151567 0.613564,2.839934 0.768418,3.019583 0.06524,0.07557 5.472083,-3.619325 6.003043,-4.102241 0.06264,-0.05699 -0.02222,-0.559568 -0.202077,-1.206284 -0.478849,-1.71542 -0.580916,-2.39337 -0.663274,-4.406342 l -0.0765,-1.867419 -2.861045,2.022035 m 32.80086,4.958286 -0.809193,0.563259 0.593916,0.290759 0.593913,0.290878 0.851022,-0.581503 0.851026,-0.581506 -0.617728,-0.272619 c -0.339725,-0.149983 -0.625849,-0.272658 -0.635744,-0.272658 -0.01105,0 -0.382174,0.253451 -0.827212,0.563385 m 1.490728,0.59366 c -0.611902,0.444892 -0.719788,0.57006 -0.565638,0.656249 0.139985,0.07845 0.410185,-0.04493 1.020537,-0.465867 0.456445,-0.314946 0.831729,-0.61274 0.833752,-0.661972 0.01105,-0.247127 -0.615123,-0.01819 -1.288651,0.47159 m -5.475897,3.63065 c -0.477186,0.323878 -0.839357,0.634671 -0.804898,0.69034 0.16686,0.270129 2.676371,1.85252 3.6663,2.312071 1.655808,0.768422 1.775728,0.774624 2.774225,0.143423 0.69526,-0.439526 0.794554,-0.540377 0.596051,-0.605824 -1.386752,-0.457168 -3.608449,-1.703621 -4.887341,-2.741936 l -0.47685,-0.387074 -0.867487,0.589016 m -5.474933,7.785218 -4.911928,3.491293 1.174465,0.782011 c 0.645891,0.429993 1.614589,1.003152 2.152701,1.273755 0.946771,0.476008 2.930872,1.191978 3.303271,1.191978 0.236456,0 9.928973,-6.831541 9.827039,-6.926433 -0.04241,-0.03952 -0.345338,-0.13951 -0.673164,-0.222307 -0.978096,-0.246891 -3.135202,-1.303436 -4.44425,-2.176765 -0.674113,-0.449659 -1.291034,-0.83721 -1.370899,-0.861176 -0.07984,-0.02371 -2.355695,1.527554 -5.057235,3.447663 m -10.586176,7.363456 -3.071553,2.164367 0.462076,0.387784 c 1.212221,1.017816 4.12951,2.493153 5.650041,2.857577 0.653408,0.156505 0.657202,0.155833 1.199973,-0.226537 0.299335,-0.211005 1.64843,-1.16146 2.997763,-2.112155 1.762141,-1.241451 2.398136,-1.749874 2.257234,-1.804117 -0.107816,-0.04162 -0.732794,-0.276334 -1.388442,-0.521781 -1.299378,-0.486379 -3.307097,-1.589066 -4.36558,-2.397663 l -0.67015,-0.512012 -3.071446,2.164485"
     stroke="none"
     fill="#741212"
     fill-rule="evenodd"
     id="path16"
     style="stroke-width:0.119209" />
  <g
     inkscape:groupmode="layer"
     id="layer1"
     inkscape:label="Layer 1">
    <rect
       style="fill:#9a916c;stroke:#242424;stroke-width:0.00250852"
       id="rect995"
       width="10.101539"
       height="8.0388565"
       x="13.61224"
       y="70.404327"
       ry="0.64147872" />
  </g>
</svg>
