<?xml version="1.0" encoding="UTF-8" standalone="no"?>
<svg
   width="33mm"
   height="23mm"
   viewBox="0 0 33 22.999999"
   version="1.1"
   id="svg18"
   sodipodi:docname="HM-582-blue-breadboard.svg"
   inkscape:version="1.1.2 (0a00cf5339, 2022-02-04)"
   xmlns:inkscape="http://www.inkscape.org/namespaces/inkscape"
   xmlns:sodipodi="http://sodipodi.sourceforge.net/DTD/sodipodi-0.dtd"
   xmlns="http://www.w3.org/2000/svg"
   xmlns:svg="http://www.w3.org/2000/svg">
  <sodipodi:namedview
     id="namedview14"
     pagecolor="#ffffff"
     bordercolor="#666666"
     borderopacity="1.0"
     inkscape:pageshadow="2"
     inkscape:pageopacity="0.0"
     inkscape:pagecheckerboard="0"
     inkscape:document-units="mm"
     showgrid="false"
     inkscape:zoom="7.3608085"
     inkscape:cx="45.103741"
     inkscape:cy="39.669555"
     inkscape:window-width="1920"
     inkscape:window-height="1031"
     inkscape:window-x="0"
     inkscape:window-y="25"
     inkscape:window-maximized="1"
     inkscape:current-layer="svg18" />
  <defs
     id="defs22" />
  <path
     d="m 24.361182,1.3777774 c -0.30498,0.021122 -0.345003,0.035997 -0.730251,0.2710108 -0.200948,0.1225779 -0.222424,0.1471772 -0.326682,0.3747206 -0.104643,0.2283484 -0.170103,0.4528008 -0.132012,0.4528008 0.0093,0 0.0415,-0.054511 0.07165,-0.1211612 0.13697,-0.3030155 0.453703,-0.5605675 0.819858,-0.6666922 0.09277,-0.026885 0.29181,-0.055027 0.442336,-0.062529 0.150526,-0.0075 0.318375,-0.02344 0.372983,-0.035353 0.167816,-0.036706 0.631177,0.070707 0.955122,0.2214258 0.677511,0.3151542 1.484876,1.0429906 2.094417,1.8881244 0.08606,0.1193581 0.02617,0.00535 -0.08474,-0.1612799 C 27.587843,3.1542391 27.002515,2.5329781 26.566746,2.1833077 25.970471,1.704845 25.350145,1.4178962 24.811955,1.3715632 c -0.08855,-0.0076 -0.291393,-0.0048 -0.450773,0.00621 m -1.577736,0.8162202 c -0.2656,0.1605394 -0.837921,0.49073 -1.27179,0.7337285 -0.433867,0.2429985 -1.491573,0.8367623 -2.350455,1.3194752 -2.24768,1.2632574 -3.437172,1.9237355 -3.889748,2.1598435 -0.350378,0.1827882 -0.407014,0.2241628 -0.489345,0.3573983 -0.0803,0.1300155 -0.240647,0.6656619 -0.208804,0.6975379 0.02361,0.023569 1.136172,-0.5780833 2.044253,-1.1055192 0.522412,-0.303402 1.312068,-0.7600344 1.754791,-1.0147208 0.442723,-0.2547186 1.159935,-0.6682378 1.593803,-0.9189961 0.433868,-0.2507904 0.984455,-0.5686816 1.223525,-0.7064569 0.23907,-0.1377753 0.762771,-0.4453953 1.163798,-0.6835319 l 0.729123,-0.4330313 0.02102,-0.1681702 c 0.01156,-0.092473 0.05687,-0.24551 0.100653,-0.3400756 0.04382,-0.094533 0.0757,-0.1758334 0.0709,-0.1806631 -0.0049,-0.00479 -0.226094,0.1226101 -0.491728,0.2831817 m 2.269992,0.03561 c -0.188552,0.099975 -0.465455,0.318181 -0.522221,0.4115552 -0.07931,0.130402 -0.121193,0.4373458 -0.05438,0.3983218 0.152072,-0.088737 1.091771,-0.7658945 1.091771,-0.7867266 0,-0.024696 -0.231632,-0.066425 -0.366735,-0.066039 -0.03735,1.289e-4 -0.104157,0.019416 -0.148434,0.042887 m 2.979091,1.6494406 c 0.02991,0.054286 0.08304,0.1339759 0.118038,0.177089 l 0.06365,0.078369 -0.05445,-0.098719 c -0.02991,-0.054284 -0.08304,-0.1339739 -0.118037,-0.1770871 l -0.06365,-0.078369 0.05445,0.098719 m 0.234659,0.3681522 c 0.298314,0.5261802 0.56749,1.3125526 0.623708,1.822183 0.03098,0.2805413 0.09221,0.4751784 0.135103,0.4293284 0.0341,-0.03648 -0.09189,-0.6697834 -0.204554,-1.0279864 -0.123061,-0.3913992 -0.456214,-1.1419996 -0.564432,-1.2718221 -0.03681,-0.044112 -0.03358,-0.028914 0.01015,0.048297 m -0.454443,2.3734788 c -0.36854,0.2618665 -0.558186,0.4152257 -0.531267,0.4295861 0.08092,0.043145 0.332733,0.063108 0.432065,0.034259 0.142122,-0.041278 0.552518,-0.3474168 0.607029,-0.4528009 0.04228,-0.081784 0.105159,-0.4217941 0.07756,-0.4193471 -0.0067,5.796e-4 -0.270141,0.1843338 -0.585392,0.4083032 m 1.089324,-0.00657 c -0.0502,0.3772965 -0.09959,0.5355176 -0.278771,0.8931089 -0.155548,0.3104534 -0.21402,0.3954883 -0.326133,0.4741481 -0.150108,0.1053519 -0.152941,0.1078312 -0.262543,0.2320512 -0.04191,0.047459 -0.135779,0.1018103 -0.208579,0.1207426 -0.07281,0.018901 -0.193962,0.052193 -0.269207,0.073991 l -0.136842,0.039603 0.209287,0.016743 c 0.366929,0.029365 0.632852,-0.084488 0.919801,-0.3937175 0.161248,-0.1737728 0.209931,-0.2564251 0.312192,-0.5298185 0.105095,-0.2810566 0.180405,-0.6364906 0.183721,-0.867286 5.49e-4,-0.037898 -0.02656,-0.1029367 -0.06027,-0.144537 l -0.06128,-0.075666 -0.02138,0.160636 m -2.085699,2.2447543 c -0.234691,0.1973739 -1.712871,1.4609534 -3.284842,2.8079244 -1.571973,1.347004 -3.059458,2.615736 -3.305547,2.819388 -0.528176,0.437088 -0.528691,0.434673 0.08725,0.426688 l 0.395424,-0.0051 0.506121,-0.464714 c 0.278385,-0.255588 1.708749,-1.518749 3.178589,-2.806959 3.51406,-3.0798695 3.52314,-3.0878869 3.515863,-3.0931029 -0.0034,-0.00248 -0.154743,-0.013137 -0.336211,-0.023698 l -0.329883,-0.01924 -0.426721,0.3588147 M 10.516032,9.674114 C 9.0741073,10.6974 9.0900453,10.682105 8.9855627,11.145274 l -0.056185,0.24918 0.084971,-0.05908 c 0.3064599,-0.213183 2.5364623,-1.7882462 2.5553943,-1.8048926 0.01285,-0.011302 0.04714,-0.136101 0.07621,-0.2773215 0.02905,-0.1412205 0.0804,-0.3110652 0.114111,-0.3774897 0.03371,-0.066392 0.05738,-0.1195834 0.05258,-0.1181667 -0.0048,0.00142 -0.588258,0.4139056 -1.296614,0.9166134 m 2.311009,-0.2439996 c -0.08903,0.070901 -0.18311,0.1616663 -0.209094,0.2017528 -0.05148,0.079465 -0.170907,0.5335539 -0.146662,0.5577669 0.0083,0.0083 0.101971,-0.05403 0.208289,-0.138355 l 0.193349,-0.1533274 0.06588,-0.2897822 c 0.03623,-0.1593802 0.06231,-0.293646 0.05796,-0.2983469 -0.0043,-0.0047 -0.08072,0.049424 -0.169717,0.1202918 m 1.654432,0.8077837 c -0.18208,0.130402 -0.250211,0.222746 -0.29165,0.395263 -0.02511,0.104548 -0.03142,0.106801 0.248214,-0.08858 0.134685,-0.09415 0.204491,-0.170231 0.249536,-0.272009 0.03435,-0.07773 0.0625,-0.146726 0.0625,-0.153327 0,-0.04298 -0.11192,0.0065 -0.268596,0.11865 m -6.8471718,1.469645 c -0.7494735,0.531525 -0.7933917,0.568392 -0.8796823,0.738784 -0.04994,0.09862 -0.1094411,0.277063 -0.1322051,0.396518 l -0.041375,0.21724 0.8148354,-0.576731 c 0.4481644,-0.317182 0.8217902,-0.601234 0.8302906,-0.63121 0.0085,-0.02998 0.032617,-0.141445 0.05361,-0.247699 0.020961,-0.106253 0.066456,-0.248923 0.1010699,-0.317054 0.034581,-0.06814 0.058279,-0.127343 0.052611,-0.131594 -0.00567,-0.0043 -0.3652866,0.24403 -0.799155,0.551746 m 9.5145153,2.1318 c -0.07451,0.01233 -0.21402,0.08143 -0.330963,0.163951 -0.18353,0.129533 -0.195733,0.145052 -0.132367,0.168493 0.03841,0.01424 0.122127,0.01668 0.186072,0.0054 0.205424,-0.036 0.638649,-0.375461 0.463523,-0.363195 -0.03161,0.0022 -0.115429,0.01362 -0.186265,0.02531 m -0.413745,1.947786 c -0.1399,0.08887 -0.206518,0.148852 -0.182177,0.163888 0.02116,0.01308 0.15967,0.03133 0.307879,0.04056 l 0.2694,0.01681 0.226675,-0.136938 c 0.124638,-0.07534 0.226642,-0.14444 0.226642,-0.153585 0,-0.0091 -0.0482,-0.0087 -0.107124,7.74e-4 -0.05889,0.0095 -0.192929,-0.0029 -0.297831,-0.02747 -0.104901,-0.02469 -0.197954,-0.04472 -0.206808,-0.04453 -0.0088,1.61e-4 -0.115365,0.0634 -0.236656,0.14048 m -1.183341,2.152825 -1.332645,0.941246 0.298219,0.02863 c 0.173901,0.01668 0.352085,0.01668 0.427396,0 0.09125,-0.02022 0.503062,-0.293067 1.404027,-0.930169 l 1.274882,-0.901545 -0.295353,-0.02106 c -0.162472,-0.01158 -0.328807,-0.02946 -0.369633,-0.0397 -0.05982,-0.01504 -0.333476,0.164436 -1.406893,0.922603 m -2.846886,2.005776 c -0.442368,0.312802 -0.808942,0.572931 -0.814577,0.57805 -0.03951,0.03587 0.346129,0.07103 0.573737,0.05236 l 0.273683,-0.02247 0.772463,-0.546466 0.772462,-0.546432 -0.305591,-0.01971 c -0.168075,-0.01084 -0.342105,-0.02969 -0.386731,-0.04189 -0.06919,-0.0189 -0.199467,0.06153 -0.885446,0.546561"
     stroke="none"
     fill-rule="evenodd"
     id="path2"
     style="display:inline;stroke-width:0.0321981;fill:#000040;fill-opacity:1" />
  <path
     d="m 26.115974,3.5740691 c -0.398451,0.283568 -0.724456,0.5284984 -0.724456,0.5443077 0,0.015809 0.05844,0.091121 0.129888,0.1673331 0.374366,0.3994166 0.711158,0.8739511 0.933227,1.3149352 l 0.115494,0.2293465 0.102933,-0.076824 c 0.05663,-0.042277 0.396358,-0.2837933 0.75498,-0.5367412 0.358621,-0.2529476 0.65201,-0.4641023 0.65201,-0.4691895 0,-0.042984 -0.204039,-0.4372815 -0.333733,-0.6449265 C 27.485002,3.6839286 26.960496,3.054071 26.876009,3.057194 c -0.01958,7.084e-4 -0.361585,0.233307 -0.760035,0.516875 m -2.715968,0.00502 c -0.01117,0.092988 -0.02045,0.2884299 -0.02057,0.4343836 -2.9e-4,0.253817 0.0081,0.2842441 0.190677,0.7008223 0.10503,0.2395211 0.289621,0.605516 0.41017,0.8132899 0.614565,1.059315 1.689367,2.1970001 2.075517,2.1970001 0.03918,0 0.09408,0.019254 0.122031,0.042791 0.05233,0.044014 0.387857,0.1300156 0.412199,0.1056416 0.02116,-0.021154 -0.08562,-0.2128289 -0.118521,-0.2128289 -0.01606,0 -0.03886,-0.032584 -0.05066,-0.072445 C 26.409068,7.5478865 26.332021,7.4498117 26.249624,7.3697995 26.16726,7.2897552 26.076882,7.195576 26.048741,7.1605123 26.020636,7.1254163 25.962677,7.0669769 25.919949,7.0306255 25.80317,6.9312608 25.448734,6.5278839 25.134835,6.1370642 24.732102,5.6356765 24.399369,5.0965851 24.027964,4.3437951 23.717673,3.7148068 23.534466,3.416331 23.456063,3.4120164 c -0.01967,-0.00109 -0.04489,0.074088 -0.05606,0.1670757 m 1.605137,0.6404187 c -0.123963,0.088545 -0.243869,0.1716154 -0.266471,0.1846234 -0.0314,0.018063 -0.01735,0.076438 0.0595,0.2472809 0.210415,0.4678374 0.689038,1.1494696 1.067622,1.520423 l 0.173354,0.1698768 0.23965,-0.1662062 c 0.131824,-0.091442 0.2516,-0.1768959 0.266186,-0.1899362 0.03204,-0.028688 -0.21283,-0.5242804 -0.417899,-0.8456812 C 25.952827,4.8667234 25.566837,4.384429 25.369398,4.1931406 l -0.13887,-0.1345879 -0.225385,0.1609581 m -2.14117,0.4828416 c -0.477722,0.3557882 -0.861458,0.6130504 -1.497207,1.0037734 -0.230216,0.1414782 -0.686623,0.4313571 -1.014239,0.6441859 -0.549298,0.3568185 -0.797512,0.5153617 -2.125069,1.3575976 -0.25678,0.1628898 -0.836343,0.5322978 -1.287921,0.8208565 -0.451578,0.2885908 -1.089098,0.6769313 -1.416714,0.8629392 -0.327615,0.1860403 -0.600718,0.3424583 -0.606932,0.3476422 -0.02269,0.018965 0.0747,0.2660518 0.27671,0.7017558 0.258453,0.557445 0.708098,1.302185 1.091223,1.807307 0.338755,0.446651 0.925306,1.084977 1.252181,1.362653 l 0.226159,0.192158 0.337306,-0.239618 c 0.185493,-0.131754 0.395232,-0.295191 0.466067,-0.363129 0.07084,-0.06794 0.744579,-0.60571 1.497208,-1.19503 0.75263,-0.58932 1.498818,-1.175775 1.658198,-1.303215 0.15938,-0.127472 0.934548,-0.7340826 1.722595,-1.3480346 1.50851,-1.1752601 2.193104,-1.7286798 2.180771,-1.7628741 -0.0041,-0.011302 -0.06658,-0.069741 -0.138901,-0.1298224 C 25.238803,7.2565896 24.683484,6.6466945 24.418623,6.2898439 24.078226,5.8312796 23.725722,5.2258279 23.52326,4.7520661 23.435134,4.54587 23.348554,4.3775065 23.330845,4.377925 c -0.01771,3.865e-4 -0.227801,0.1464046 -0.466872,0.3244274 m 1.352318,0.7151826 c 0,0.026949 0.022,0.153488 0.04884,0.2812497 0.0369,0.1753183 0.07451,0.2606753 0.153424,0.3482217 0.0575,0.063785 0.153874,0.1847844 0.214181,0.2689178 0.0603,0.084133 0.118939,0.1529406 0.130305,0.1529406 0.0114,0 0.05241,-0.042888 0.09115,-0.095306 0.07441,-0.1006191 0.09424,-0.2725562 0.03565,-0.308779 -0.01916,-0.011849 -0.06037,-0.063559 -0.09164,-0.1149792 -0.0812,-0.1335251 -0.58191,-0.5915098 -0.58191,-0.5322654 M 10.516032,12.493051 c -1.1227134,0.794905 -1.3185418,0.945206 -1.3094621,1.005062 0.00582,0.03874 0.097625,0.280508 0.2039745,0.537288 0.461913,1.115533 1.1813776,2.212037 2.0036506,3.053789 0.365029,0.37369 0.929717,0.87437 0.986128,0.87437 0.03748,0 2.626071,-1.81964 2.654857,-1.86623 0.0086,-0.01394 -0.133977,-0.149495 -0.316828,-0.301244 -0.800798,-0.664599 -1.650053,-1.723303 -2.230391,-2.780461 -0.228734,-0.416674 -0.623514,-1.308496 -0.623514,-1.408535 0,-0.02801 -0.01085,-0.05043 -0.02415,-0.04981 -0.0133,6.12e-4 -0.618202,0.421698 -1.344267,0.935772 m 2.440352,-0.717565 c -0.109956,0.08304 -0.200465,0.172677 -0.201141,0.199241 -0.0023,0.08504 0.368056,0.848096 0.595438,1.227098 0.426979,0.711609 1.000135,1.391439 1.565404,1.856732 0.0465,0.03828 0.08262,0.02444 0.281733,-0.10796 0.125637,-0.08355 0.228413,-0.160733 0.228413,-0.17155 0,-0.01079 -0.0833,-0.09157 -0.185139,-0.179505 -0.69712,-0.601909 -1.449491,-1.639105 -1.875535,-2.585566 -0.0974,-0.216338 -0.184334,-0.392494 -0.193188,-0.391399 -0.0088,0.0011 -0.106061,0.0699 -0.215985,0.152909 m -5.3133493,2.734832 c -0.7409089,0.522929 -0.8081382,0.578148 -0.7907514,0.64937 0.041439,0.170006 0.3157983,0.813998 0.5155226,1.210067 0.2583247,0.512238 0.6216795,1.086168 1.0158478,1.604459 0.3176979,0.417737 1.1380392,1.266542 1.4562201,1.506707 l 0.1931882,0.145857 0.827746,-0.582076 0.827747,-0.582077 -0.08719,-0.07451 C 10.445228,17.400223 9.6527702,16.411293 9.0035936,15.146233 8.876347,14.898308 8.7082089,14.525455 8.6299033,14.31768 8.5516299,14.109907 8.4797317,13.939643 8.4701689,13.939353 8.4606389,13.939064 8.088429,14.196004 7.6430338,14.510321"
     stroke="none"
     fill-rule="evenodd"
     id="path4"
     style="display:inline;fill:#000080;stroke-width:0.0321981" />
  <path
     d="m 24.361182,1.335276 -0.193188,0.043306 0.313029,-0.011978 c 0.184784,-0.00705 0.39581,0.00551 0.515168,0.030717 0.406017,0.085679 0.404536,0.085486 0.266536,0.030395 -0.127247,-0.050841 -0.566493,-0.1427338 -0.66006,-0.1380973 -0.02656,0.00132 -0.135233,0.021863 -0.241485,0.045657 m -0.550844,0.1440218 c -0.07274,0.035997 -0.166915,0.1029371 -0.209288,0.1487227 -0.07567,0.081751 -0.07418,0.081525 0.08397,-0.013427 0.08854,-0.053159 0.204458,-0.1195191 0.257584,-0.147467 0.143217,-0.075279 0.0219,-0.064139 -0.132269,0.012171 m -0.640481,0.3277115 c -0.212507,0.1246386 -1.987423,1.1143092 -3.944258,2.1992539 -3.527102,1.9555472 -3.994037,2.2240466 -4.205255,2.418104 -0.381741,0.3507009 0.01081,0.1443116 4.140859,-2.1773272 0.858881,-0.4828093 1.87312,-1.0513621 2.253862,-1.2634505 0.870891,-0.4851276 1.875696,-1.0851056 1.908731,-1.1396812 0.01382,-0.02286 0.07902,-0.092634 0.144891,-0.1550657 0.06584,-0.062432 0.112499,-0.1123711 0.103644,-0.1109866 -0.0088,0.00138 -0.18997,0.1044825 -0.402476,0.2291533 m 3.669738,0.6083816 c 0.158929,0.1486261 0.356013,0.3426514 0.437957,0.431196 0.333056,0.3599095 0.354275,0.3801943 0.218688,0.2092872 -0.1483,-0.1869096 -0.749791,-0.7813495 -0.873013,-0.8627461 -0.03994,-0.02637 0.05744,0.073637 0.21637,0.2222629 M 24.86917,2.2750719 c -0.129725,0.071157 -0.277869,0.2005938 -0.25533,0.2231324 0.01571,0.015745 0.407401,-0.2419681 0.407401,-0.2680485 0,-0.024793 -0.05399,-0.00885 -0.152071,0.044916 m 2.829531,1.052618 c 0.02934,0.036447 0.184751,0.2723631 0.345387,0.5242161 0.296383,0.464714 0.628088,1.1294423 0.731282,1.465493 0.03122,0.101617 0.06289,0.1786026 0.07042,0.1711004 0.02496,-0.024985 -0.127538,-0.439664 -0.289204,-0.7863402 -0.182144,-0.3906587 -0.649595,-1.160932 -0.806045,-1.3282652 -0.05783,-0.061885 -0.08116,-0.082652 -0.05184,-0.046205 m 0.316957,3.5802917 c -0.242194,0.1794075 -0.200723,0.2194618 0.04692,0.045303 0.105931,-0.074506 0.248504,-0.2301514 0.20655,-0.2255149 -0.0066,7.404e-4 -0.120646,0.081847 -0.253464,0.1802122 m 0.992923,0.096079 c -0.01107,0.1084107 -0.07602,0.3462253 -0.144312,0.5284983 -0.102126,0.2726207 -0.155548,0.3656408 -0.301244,0.524506 -0.0974,0.1062212 -0.220557,0.2196871 -0.273683,0.2521749 -0.05313,0.032488 -0.07969,0.059116 -0.05901,0.05918 0.02067,6.43e-5 0.132881,-0.082234 0.249341,-0.1828848 0.168654,-0.1457606 0.2411,-0.2398109 0.355788,-0.4618806 0.144569,-0.2798976 0.229025,-0.6220338 0.204168,-0.8268133 -0.0064,-0.052515 -0.01929,-0.00795 -0.03104,0.1072195 M 10.896644,9.2166122 C 9.7578645,10.026747 9.3290191,10.367369 9.2411828,10.531451 c -0.046977,0.0878 -0.1248639,0.139868 1.3051462,-0.8724058 0.685947,-0.4855784 1.270212,-0.9202517 1.298354,-0.9659407 0.02814,-0.045689 0.10957,-0.1446335 0.180952,-0.2199125 0.07138,-0.075278 0.123157,-0.1355537 0.115044,-0.133976 -0.0081,0.00158 -0.567941,0.3964221 -1.244035,0.8773962 M 28.057129,8.475639 c -0.05689,0.0208 -0.303208,0.2133764 -0.547366,0.4280084 -0.244191,0.2145998 -1.646544,1.4443716 -3.116383,2.7328396 -2.67527,2.345111 -3.601253,3.171248 -3.579229,3.193239 0.0065,0.0065 0.105094,-0.03194 0.219171,-0.08532 0.128277,-0.06005 0.329805,-0.204394 0.528049,-0.378263 1.000295,-0.877332 5.946556,-5.2540413 6.245,-5.5258893 0.194798,-0.1774433 0.375396,-0.3416854 0.401315,-0.3649645 0.04141,-0.037188 0.04141,-0.04205 0,-0.039893 -0.02592,0.00135 -0.0937,0.019448 -0.150557,0.040247 M 12.991448,9.1531178 c -0.09067,0.073186 -0.203363,0.1959572 -0.250502,0.2727816 l -0.08564,0.1397394 0.193445,-0.1519746 c 0.162343,-0.1275364 0.350153,-0.3559169 0.316894,-0.385346 -0.0051,-0.00454 -0.08355,0.051614 -0.174191,0.1247996 m 1.417872,1.1014622 -0.126121,0.115173 0.152941,-0.104516 c 0.08412,-0.05747 0.152941,-0.109312 0.152941,-0.115172 0,-0.03629 -0.07039,0.0046 -0.179761,0.104515 m -6.4369385,1.030014 c -0.4630399,0.330449 -0.8097482,0.603199 -0.9251781,0.727869 -0.1015207,0.109698 -0.1788923,0.205165 -0.1718731,0.212153 0.025695,0.02573 1.5960883,-1.105068 1.6151817,-1.163057 0.010851,-0.03294 0.070643,-0.116235 0.1328813,-0.185138 0.062207,-0.06887 0.1078311,-0.124092 0.1013271,-0.12274 -0.00648,0.0013 -0.3450341,0.240262 -0.752339,0.530913 m 9.2135926,2.737573 c -0.06746,0.04585 -0.115236,0.09077 -0.106156,0.09985 0.01552,0.01552 0.246089,-0.144601 0.246089,-0.170939 0,-0.02147 -0.01462,-0.01404 -0.139933,0.07109 m 0.545725,1.679062 c -0.0737,0.0076 -0.206551,0.06487 -0.321981,0.138806 -0.20333,0.130273 -0.178442,0.174996 0.03593,0.06448 0.06697,-0.03452 0.19058,-0.09196 0.274681,-0.127634 0.0841,-0.0357 0.15294,-0.07267 0.15294,-0.08215 0,-0.0095 -0.0035,-0.01481 -0.0081,-0.01185 -0.0044,0.003 -0.06453,0.01123 -0.133525,0.01833 m 0.074,1.31078 c -0.105191,0.02901 -0.519,0.303274 -1.428885,0.946976 -0.704427,0.498362 -1.268055,0.906022 -1.252535,0.905926 0.112822,-7.1e-4 0.32475,-0.09949 0.573672,-0.26731 0.301793,-0.203522 2.100246,-1.468809 2.236025,-1.573163 0.08784,-0.06752 0.07572,-0.06868 -0.128277,-0.01242 m -3.331079,2.378822 c -0.131272,0.04711 -0.420442,0.229509 -0.885446,0.558572 -0.893624,0.632401 -0.862103,0.605709 -0.609992,0.516457 0.151074,-0.05352 0.410815,-0.21634 0.933743,-0.585393 0.708615,-0.5001 0.800636,-0.567201 0.771143,-0.562081 -0.008,0.0013 -0.102232,0.034 -0.209448,0.07244"
     stroke="none"
     fill-rule="evenodd"
     id="path6"
     style="display:inline;fill:#383838;stroke-width:0.0321981" />
  <path
     d="m 15.596557,12.141255 -0.328774,0.230312 0.0551,0.09496 c 0.03026,0.05221 0.07141,0.101458 0.09144,0.109408 0.0341,0.01355 0.688071,-0.425303 0.688071,-0.461752 0,-0.03001 -0.132495,-0.203845 -0.15513,-0.203555 -0.01207,1.93e-4 -0.169908,0.103968 -0.350701,0.230634 m -0.677034,0.519674 c -0.121161,0.08191 -0.120743,0.0804 -0.04778,0.175222 l 0.05587,0.07254 0.118971,-0.08466 c 0.116557,-0.08294 0.117844,-0.0862 0.06417,-0.16009 -0.06601,-0.09087 -0.06137,-0.0908 -0.191224,-0.003 m -9.4005993,6.652273 c -1.3666452,0.966617 -2.4920306,1.764934 -2.5007885,1.774047 -0.00876,0.0091 0.010014,0.05101 0.041761,0.09308 l 0.057731,0.07653 2.4756741,-1.747999 c 1.3616218,-0.961368 2.4883917,-1.759301 2.5039756,-1.773146 0.015648,-0.01394 0.00113,-0.0597 -0.032616,-0.102545 l -0.060853,-0.0774 -2.4848827,1.757433"
     stroke="none"
     fill-rule="evenodd"
     id="path8"
     style="display:inline;stroke-width:0.0321981"
     fill="#7d7d7d" />
  <path
     d="m 23.926508,1.3998331 c -0.628151,0.2010766 -0.937767,0.8700872 -0.838179,1.8110101 0.244673,2.3113353 2.673854,5.1912878 4.476556,5.3072007 0.418478,0.026917 0.66621,-0.048039 0.932036,-0.2820548 0.103706,-0.091281 0.203138,-0.1980178 0.221008,-0.2372028 0.01784,-0.039185 -0.06404,0.021122 -0.181984,0.1340082 -0.184269,0.1763808 -0.247699,0.2154692 -0.45119,0.2778689 C 26.767888,8.8146843 24.576329,7.0224134 23.575131,4.7226372 23.00265,3.4076697 22.989288,2.1817943 23.541996,1.681759 23.751507,1.4922414 23.794621,1.4687046 24.07117,1.3927495 c 0.1418,-0.038927 0.221587,-0.070643 0.177314,-0.070514 -0.04427,1.61e-4 -0.189162,0.035064 -0.32198,0.077597 m 0.83248,0.2193007 c -0.602775,0.1198089 -0.91619,0.7383973 -0.813189,1.6050716 0.220203,1.8526423 2.073554,4.1374785 3.598194,4.4358899 0.252013,0.049327 0.311387,0.050743 0.513203,0.0123 0.441532,-0.084133 0.756623,-0.4439786 0.827716,-0.9452375 0.01857,-0.1310781 0.03955,-0.2440931 0.04656,-0.2511124 0.03435,-0.034323 0.118715,0.1645641 0.120357,0.2836969 0.0012,0.089028 0.01137,0.1201308 0.02972,0.091184 0.05824,-0.091925 0.03033,-0.2476672 -0.06256,-0.3493808 C 28.938421,6.4133233 28.923223,6.362386 28.891283,6.0729257 28.717156,4.4942887 27.272913,2.4798192 25.837461,1.8132557 25.587218,1.697053 25.08905,1.5624009 24.970433,1.5788863 c -0.01633,0.00229 -0.11147,0.020381 -0.211444,0.040248 m 4.51e-4,0.064396 c -0.880263,0.1753826 -1.024703,1.4650101 -0.329194,2.9395187 0.713831,1.5134039 2.017626,2.7581151 3.113743,2.9726506 0.250565,0.049038 0.312095,0.050615 0.509212,0.013039 0.600847,-0.1144959 0.870151,-0.6558735 0.772237,-1.552492 -0.198888,-1.8217321 -2.038972,-4.0823555 -3.553954,-4.3662455 -0.149238,-0.027948 -0.284727,-0.048973 -0.301051,-0.046719 -0.01633,0.00229 -0.111276,0.020381 -0.210993,0.040248 m 0.250822,0.4741482 c -0.193542,0.045496 -0.397131,0.2116376 -0.506315,0.4132615 -0.44665,0.8246238 0.192094,2.5188518 1.392404,3.6931782 0.646409,0.6324015 1.369544,0.9742477 1.86301,0.8806482 C 28.144289,7.0717721 28.397687,6.7727491 28.46086,6.316986 28.635244,5.0586557 27.376655,3.0285702 25.990884,2.3328997 25.632745,2.1531058 25.290127,2.0918974 25.010262,2.157678 m -1.61e-4,0.064428 c -0.299216,0.070321 -0.513623,0.3541783 -0.57203,0.7573297 -0.03593,0.2480536 -0.01266,0.4950125 0.04666,0.4950125 0.08092,0 0.610506,0.4005756 0.885798,0.6700087 0.776618,0.7600345 1.309237,1.6872088 1.498884,2.6091993 0.03056,0.1485295 0.04943,0.1779585 0.137614,0.2147609 0.102002,0.042566 0.103707,0.0416 0.756654,-0.4214723 C 28.123623,6.2916794 28.417913,6.0718956 28.417622,6.0585012 28.389641,4.7624664 27.236374,3.0225171 25.990889,2.3972959 25.632649,2.2174697 25.290127,2.1562935 25.010101,2.2221063 m -0.551843,1.4213818 c 0.188649,0.9091112 0.735629,1.8720898 1.470259,2.5883994 0.230699,0.2249676 0.593635,0.5009368 0.797223,0.6062244 l 0.102169,0.052837 -0.02102,-0.1225134 C 26.762092,6.5077923 26.593246,6.0168368 26.442076,5.7076714 26.034095,4.8734204 25.466443,4.1949114 24.772221,3.7116835 24.477835,3.5067753 24.427638,3.4958923 24.458258,3.6434881 m -9.306613,2.6143187 c -0.456986,0.345034 -0.659159,0.8439424 -0.659159,1.6266121 0,0.2308599 -0.0038,0.4197335 -0.0083,0.4197335 -0.0045,0 -0.138581,-0.051839 -0.297832,-0.1152045 -0.861876,-0.3429413 -1.592482,-0.2758084 -2.071106,0.1903546 -0.257841,0.2511124 -0.393845,0.5152006 -0.484161,0.9401824 -0.08629,0.4061781 -0.08713,0.7512441 -0.0029,1.2510541 0.401413,2.38494 2.385165,5.118875 4.443682,6.124096 1.340211,0.654458 2.381173,0.410171 2.789026,-0.654585 0.101039,-0.263702 0.165625,-0.794905 0.138032,-1.135303 -0.01075,-0.132816 -0.01848,-0.243738 -0.01717,-0.246475 0.0013,-0.0028 0.0966,0.03863 0.211703,0.09203 0.115108,0.05339 0.368667,0.132366 0.563466,0.175543 0.497651,0.110311 0.826104,0.08636 1.192034,-0.08683 0.142091,-0.06726 0.286981,-0.156031 0.321981,-0.197309 l 0.06369,-0.07502 -0.06695,0.05635 c -0.03681,0.03101 -0.07628,0.05635 -0.08767,0.05635 -0.01143,0 -0.120581,0.04859 -0.242611,0.107959 -0.955026,0.46478 -2.586822,-0.254396 -3.994005,-1.76033 -1.175066,-1.257526 -2.07616,-2.932982 -2.323539,-4.320363 -0.09054,-0.5077951 -0.08877,-1.1257074 0.0044,-1.5177828 0.0965,-0.4062747 0.293035,-0.7080345 0.598884,-0.9194468 0.129468,-0.089511 0.235399,-0.1682025 0.235399,-0.1748352 0,-0.043596 -0.111179,0.015552 -0.306782,0.1632439 m 12.632381,0.3347307 c -0.313352,0.2241949 -0.578567,0.4168356 -0.589386,0.4281372 -0.01079,0.011302 0.07313,0.036674 0.186524,0.056443 0.40592,0.070674 0.729832,-0.063591 0.899193,-0.3727887 0.08629,-0.157545 0.15864,-0.5281443 0.101971,-0.5223164 -0.01574,0.00161 -0.284953,0.1863622 -0.598304,0.4105248 M 12.963081,8.0470512 c -0.675257,0.071673 -1.103781,0.5018383 -1.267572,1.2724337 -0.08629,0.4061781 -0.08713,0.7512441 -0.003,1.2510541 0.399964,2.376311 2.343436,5.065554 4.379286,6.0597 1.556419,0.760068 2.685507,0.304659 2.845436,-1.147666 0.03812,-0.346032 0.02041,-0.815898 -0.03262,-0.865289 -0.01613,-0.01501 -0.06192,-0.03713 -0.10174,-0.04916 -0.0632,-0.0191 -0.07242,-0.01036 -0.07219,0.06884 4.82e-4,0.181211 -0.168943,0.524796 -0.354436,0.718692 -0.32636,0.341171 -0.755012,0.440824 -1.318509,0.306525 -1.255889,-0.299312 -2.813663,-1.819606 -3.617582,-3.530577 -0.460079,-0.979142 -0.631178,-1.905705 -0.47344,-2.5637036 0.163758,-0.6831133 0.6315,-1.0385152 1.312327,-0.9972051 0.255073,0.015487 0.265602,0.013394 0.265151,-0.052773 -8.37e-4,-0.1149791 -0.04128,-0.1465654 -0.340044,-0.2654405 -0.232373,-0.092473 -0.899033,-0.2519496 -0.976984,-0.2337255 -0.01036,0.00239 -0.120131,0.015134 -0.244094,0.028302 m 0.811487,0.627314 c -0.230634,0.063398 -0.450096,0.2302482 -0.583749,0.4437533 -0.841432,1.3443964 0.645183,4.5613654 2.762847,5.9786254 0.968935,0.6485 1.952488,0.735918 2.390059,0.212443 0.14296,-0.171037 0.274295,-0.460272 0.300569,-0.662025 l 0.0189,-0.144891 -0.338626,-0.220942 c -0.186233,-0.121515 -0.427816,-0.299055 -0.53687,-0.394555 -0.224324,-0.196407 -0.270527,-0.197921 -0.365351,-0.01207 -0.08799,0.172485 -0.283278,0.316056 -0.480909,0.353536 -0.868511,0.164691 -2.302449,-1.19706 -2.725241,-2.588079 -0.153296,-0.504382 -0.156612,-0.901511 -0.01025,-1.21673 0.08404,-0.180889 0.28608,-0.337242 0.474761,-0.367412 0.248215,-0.0397 0.248633,-0.04202 0.08948,-0.5163274 -0.07793,-0.2324698 -0.158849,-0.5241517 -0.179778,-0.6481785 l -0.03802,-0.2254828 -0.118488,-0.019608 c -0.188038,-0.031071 -0.491407,-0.018224 -0.65932,0.027949 m -1.006793,0.6396086 c -0.0189,0.020542 -0.086,0.1181345 -0.149142,0.2168215 -0.466742,0.7296396 -0.176477,2.2943336 0.686398,3.7001976 1.048207,1.707783 2.653118,2.914404 3.752809,2.821448 0.233919,-0.01976 0.65449,-0.179987 0.65449,-0.24931 0,-0.02905 -0.101333,0.0114 -0.296255,0.118263 -0.04782,0.02621 -0.2004,0.05641 -0.339045,0.0671 -1.89305,0.145985 -4.61298,-3.098481 -4.61298,-5.502514 0,-0.433965 0.06568,-0.7120591 0.232857,-0.986 0.118392,-0.193994 0.146822,-0.2686935 0.07087,-0.186009 m -3.3317348,0.940918 c -0.07895,0.08124 -0.237718,0.195925 -0.3528259,0.254911 -0.4075626,0.208837 -0.7104816,0.636748 -0.8171858,1.154428 -0.06636,0.321916 -0.067648,0.936866 -0.00281,1.340823 0.3902722,2.430855 2.6351505,5.374043 4.7359095,6.209068 0.925501,0.367862 1.680544,0.286529 2.167056,-0.233403 0.04295,-0.04588 0.09263,-0.08343 0.110472,-0.08343 0.04753,0 0.42173,-0.249053 0.491857,-0.327358 0.0331,-0.03693 -0.03439,-0.0012 -0.150011,0.07927 -0.154968,0.107992 -0.281829,0.164919 -0.48297,0.216661 -1.518031,0.390696 -3.921164,-1.396777 -5.3038102,-3.945026 -0.6032622,-1.11183 -0.9098197,-2.154949 -0.9084672,-3.09101 0.00106,-0.716793 0.1625033,-1.178448 0.5397354,-1.543541 0.1010375,-0.09775 0.1685889,-0.178055 0.1501394,-0.178409 -0.018449,-3.54e-4 -0.09814,0.06581 -0.1770892,0.147016 M 14.60518,10.13036 c -0.11073,0.02689 -0.271623,0.168621 -0.337049,0.296834 -0.109023,0.213698 -0.153295,0.839177 -0.05938,0.839177 0.01761,0 0.116461,-0.05924 0.219655,-0.131626 l 0.18765,-0.131625 -9.02e-4,-0.282409 c -7.08e-4,-0.218721 0.01442,-0.317086 0.067,-0.435962 0.03735,-0.08442 0.06791,-0.158897 0.06791,-0.165497 0,-0.01452 -0.05766,-0.01008 -0.144891,0.01111 m 0.253398,0.411619 -0.197375,0.143088 0.01481,0.15381 c 0.08706,0.903444 0.782894,2.039391 1.580634,2.580383 0.246088,0.166882 0.521253,0.297961 0.568004,0.270591 0.0189,-0.01111 0.117749,-0.07841 0.219624,-0.149591 l 0.185235,-0.129437 -0.09032,-0.09824 c -0.04968,-0.05403 -0.2105,-0.227443 -0.357355,-0.385373 -0.535581,-0.575894 -1.262131,-1.640072 -1.560253,-2.285288 -0.06224,-0.134684 -0.124959,-0.244479 -0.139384,-0.243965 -0.01442,5.48e-4 -0.115076,0.06533 -0.223615,0.144022 m -5.8236565,0.05309 c -0.3270032,0.168653 -0.6061601,0.592283 -0.704493,1.069167 -0.06636,0.321916 -0.067648,0.936803 -0.00281,1.340823 0.2582927,1.608742 1.371314,3.561262 2.7822635,4.880706 1.241748,1.161221 2.577902,1.709618 3.446057,1.414331 0.2042,-0.06946 0.608607,-0.321047 0.573093,-0.356529 -0.0068,-0.0068 -0.06946,0.0034 -0.139289,0.02277 -0.182112,0.05036 -0.668334,0.0071 -1.004449,-0.08938 -1.449834,-0.4161 -3.175294,-2.034438 -4.2179613,-3.956113 C 9.1724079,13.824375 8.8585415,12.766959 8.8580585,11.857429 8.857801,11.379965 8.923324,11.0377 9.0713704,10.743153 c 0.060082,-0.119519 0.1054485,-0.216693 0.1008121,-0.21592 -0.00466,8.05e-4 -0.066425,0.03133 -0.1372601,0.06784 m 5.3854086,0.900676 c -0.133686,0.08745 -0.150204,0.110374 -0.133106,0.184752 0.04311,0.187456 0.312674,0.733792 0.50876,1.031141 0.214858,0.325844 0.744161,0.911591 0.911527,1.008732 0.0945,0.05483 0.09647,0.05435 0.265278,-0.06382 l 0.170039,-0.119035 -0.108765,-0.04888 c -0.312417,-0.140447 -0.816381,-0.63005 -1.054969,-1.024928 -0.176284,-0.291745 -0.326488,-0.677864 -0.349155,-0.897455 -0.0097,-0.09411 -0.02651,-0.170939 -0.03732,-0.170714 -0.01078,1.93e-4 -0.08832,0.0453 -0.172291,0.1002 m -7.4053536,0.487025 c -0.2274146,0.23672 -0.3874389,0.546498 -0.4584999,0.887538 -0.063881,0.306462 -0.063334,0.948264 0.00116,1.350579 0.084519,0.527339 0.3567541,1.372022 0.6016844,1.866906 0.037188,0.07515 0.061466,0.141833 0.053964,0.148175 -0.086548,0.07344 -4.3204278,3.044839 -4.3876572,3.079323 -0.2275717,0.116723 -0.3103529,0.316994 -0.3106104,0.751571 -3.542e-4,0.533746 0.2334678,1.033202 0.7053299,1.506675 0.2841155,0.28508 0.4399217,0.3838 0.7998634,0.506892 0.2765489,0.09459 0.4505147,0.09009 0.6071259,-0.01571 0.068903,-0.04653 0.1324949,-0.09528 0.1413493,-0.108378 0.01523,-0.02251 4.1349671,-2.942287 4.2741913,-3.029222 0.059856,-0.03738 0.093922,-0.0149 0.38306,0.252528 1.0814349,1.000297 2.1882419,1.528312 3.0541749,1.457026 0.289589,-0.02383 0.620295,-0.123255 0.690229,-0.207517 0.02212,-0.02666 -0.04817,-0.0122 -0.182208,0.03751 -1.028309,0.381256 -2.426927,-0.209675 -3.8244177,-1.61586 C 8.6437485,18.32759 8.2358961,17.817445 7.8327446,17.185978 7.2228174,16.230565 6.7639633,15.108432 6.6234512,14.228589 c -0.060564,-0.379131 -0.069902,-1.004675 -0.019513,-1.30402 0.03368,-0.19995 0.2395855,-0.725004 0.2941934,-0.750117 0.037125,-0.01707 0.3548866,-0.392913 0.332187,-0.392913 -0.012106,0 -0.1089903,0.09057 -0.2153404,0.201238 m 9.2694248,1.818416 -0.21856,0.152135 0.160412,0.07853 0.16041,0.07856 0.229861,-0.157061 0.229862,-0.157062 -0.166851,-0.07364 c -0.09176,-0.04051 -0.16904,-0.07363 -0.171711,-0.07363 -0.0028,0 -0.103226,0.06845 -0.223423,0.152168 m 0.40151,0.163437 c -0.109956,0.07872 -0.193189,0.14985 -0.184946,0.158092 0.0083,0.0083 0.07299,0.02802 0.143892,0.04395 0.261319,0.05872 0.596309,-0.06636 0.697089,-0.26029 l 0.04191,-0.08072 -0.24902,-0.0021 c -0.244545,-0.002 -0.252563,4.83e-4 -0.448938,0.141059 m -11.708485,4.210958 -2.3821065,1.685406 0.00651,0.181113 c 0.010239,0.285242 0.1440862,0.637554 0.3907553,1.028567 0.1902259,0.301534 0.6428013,0.744385 0.8990654,0.879746 l 0.2015918,0.106447 2.3581513,-1.664864 c 1.2969685,-0.915643 2.3770513,-1.682181 2.4001372,-1.7034 0.033841,-0.03107 0.00499,-0.07937 -0.1487548,-0.24902 C 8.3213189,18.018651 7.7567587,17.219979 7.4757343,16.703651 L 7.3595316,16.490178 4.9774251,18.175584"
     stroke="none"
     fill-rule="evenodd"
     id="path10"
     style="display:inline;stroke-width:0.0321981"
     fill="#1c1c1c" />
  <path
     d="m 14.858579,10.541979 -0.197375,0.143089 0.01481,0.15381 c 0.04327,0.448904 0.315283,1.162702 0.578952,1.519264 0.0087,0.01192 0.435736,-0.272364 0.615208,-0.409657 l 0.07367,-0.05638 -0.30456,-0.502644 c -0.167494,-0.276449 -0.355467,-0.612855 -0.417706,-0.747539 -0.06224,-0.134684 -0.124959,-0.244479 -0.139384,-0.243964 -0.01442,5.47e-4 -0.115076,0.06533 -0.223615,0.144021 m -0.438248,0.953771 c -0.180245,0.117909 -0.180245,0.118681 0.0149,0.559472 0.149753,0.338305 0.340879,0.660125 0.391849,0.659898 0.01961,-9.6e-5 0.07711,-0.03332 0.12773,-0.07382 l 0.09208,-0.07367 -0.10036,-0.15822 c -0.137292,-0.216468 -0.29545,-0.63794 -0.3167,-0.843975 -0.0096,-0.09363 -0.0264,-0.170103 -0.03722,-0.169877 -0.01079,1.94e-4 -0.08832,0.0453 -0.172291,0.100199 m 1.355375,0.863714 -0.34278,0.242611 0.06823,0.09582 c 0.145857,0.204813 0.483871,0.532426 0.712284,0.690326 0.274328,0.189615 0.560923,0.33106 0.611215,0.301632 0.0189,-0.01111 0.117749,-0.07841 0.219624,-0.149593 l 0.185235,-0.129436 -0.09032,-0.09824 c -0.04968,-0.05403 -0.210801,-0.22777 -0.358041,-0.386088 -0.147242,-0.158284 -0.356562,-0.405211 -0.465198,-0.548718 l -0.197467,-0.260903 -0.342781,0.242581 m -0.727707,0.460463 c -0.05699,0.03986 -0.103874,0.08294 -0.104188,0.09576 -8.69e-4,0.03622 0.356915,0.441081 0.551134,0.623708 0.269562,0.253463 0.27964,0.255943 0.478172,0.116943 l 0.169717,-0.118811 -0.108766,-0.04888 c -0.187457,-0.0843 -0.390111,-0.242579 -0.635299,-0.496236 -0.130241,-0.134715 -0.239102,-0.24493 -0.241935,-0.24493 -0.0029,0 -0.05184,0.03258 -0.10883,0.07244 m -10.070189,5.355402 -2.382493,1.685663 0.00653,0.181436 c 0.00941,0.261481 0.192351,0.759391 0.3566253,0.970738 l 0.055413,0.07128 2.399912,-1.697286 C 6.7337221,18.453646 7.855759,17.659096 7.907147,17.621457 L 8.000613,17.553036 7.7778026,17.203557 C 7.655269,17.011335 7.511215,16.772073 7.4576698,16.671872 l -0.097367,-0.18224 -2.3824927,1.685694 m 0.673164,1.288855 c -1.3441387,0.949295 -2.4647589,1.745842 -2.4902597,1.770087 -0.039893,0.03797 -0.00618,0.08355 0.2414851,0.326874 0.177862,0.174738 0.3648681,0.323494 0.4894423,0.389274 l 0.2015918,0.106447 2.3581512,-1.664864 c 1.2969687,-0.915646 2.3770514,-1.682185 2.4001374,-1.703404 0.033841,-0.03107 0.00448,-0.07995 -0.1512663,-0.251789 C 8.5939703,18.31951 8.4248019,18.114343 8.3243441,17.98085 8.2238862,17.847389 8.1311238,17.738174 8.1182445,17.738174 c -0.01288,0 -1.1231637,0.776713 -2.4672703,1.726007"
     stroke="none"
     fill-rule="evenodd"
     id="path12"
     style="display:inline;stroke-width:0.0321981"
     fill="#797979" />
  <path
     d="m 22.249946,5.0434906 c 0,0.024508 0.02,0.1395806 0.04442,0.2557659 0.03355,0.1594327 0.06776,0.2370556 0.139523,0.3166694 0.05229,0.058005 0.139931,0.1680412 0.194774,0.2445514 0.05484,0.07651 0.108162,0.1390826 0.118498,0.1390826 0.01037,0 0.04767,-0.039002 0.0829,-0.086671 0.06767,-0.091502 0.0857,-0.2478601 0.03241,-0.2808007 -0.01742,-0.010775 -0.0549,-0.0578 -0.08333,-0.104561 -0.07385,-0.121426 -0.529197,-0.5379129 -0.529197,-0.4840367 m 5.096079,12.8073815 c -0.0016,0.07197 0.01568,0.240944 0.07452,0.149536 0.01317,-0.02128 0.03593,-0.0044 0.0626,0.04653 0.02304,0.04398 0.04851,0.07335 0.0566,0.06524 0.0081,-0.0081 4.98e-4,-0.04134 -0.01692,-0.07387 -0.04126,-0.07707 -0.04012,-0.08614 0.01238,-0.09745 0.03212,-0.0069 0.01271,-0.04503 -0.07197,-0.14122 l -0.115981,-0.131762 -0.0012,0.183003"
     stroke="none"
     fill-rule="evenodd"
     id="path14"
     style="display:inline;fill:#676767;stroke-width:0.0292806" />
  <path
     d="M 24.29363,1.6390644 C 23.668667,1.7307 23.200572,2.1596742 23.138075,2.697993 c -0.0291,0.2509514 0.03435,0.7912021 0.138484,1.1789307 0.08639,0.3215939 0.08648,0.3217871 0.09408,0.1609902 0.01958,-0.4150648 0.048,-0.6277649 0.08368,-0.6258975 0.08011,0.00421 0.26103,0.2981216 0.573641,0.9317787 0.371404,0.75279 0.704138,1.2918814 1.10687,1.7932691 0.3139,0.3908197 0.668335,0.7941966 0.785118,0.8935596 0.04272,0.036351 0.100684,0.094791 0.128792,0.1298868 0.02814,0.035064 0.118521,0.1292429 0.200884,0.2092872 0.08239,0.080012 0.159443,0.1780874 0.171228,0.2179485 0.01178,0.03983 0.03458,0.072445 0.05065,0.072445 0.0329,0 0.139675,0.1916748 0.118521,0.212829 -0.02434,0.024374 -0.359877,-0.061627 -0.412199,-0.1056418 -0.02794,-0.023536 -0.08301,-0.042791 -0.12232,-0.042791 -0.03935,0 -0.117878,-0.022346 -0.174578,-0.04965 l -0.103037,-0.04965 0.112694,0.099137 c 0.310001,0.272653 1.210967,0.7077771 1.465009,0.7075195 0.11147,-1.289e-4 0.517518,-0.1009413 0.613598,-0.1523611 0.0358,-0.019158 0.08397,-0.068549 0.106993,-0.1097953 0.02305,-0.041213 0.109411,-0.1183921 0.191932,-0.1715188 0.130628,-0.084101 0.175834,-0.1465333 0.34993,-0.4829704 0.204621,-0.3954552 0.278999,-0.6172995 0.10558,-0.3148956 -0.05725,0.099781 -0.166689,0.2211361 -0.269401,0.2986688 C 27.858177,7.9491047 26.803145,7.5982428 25.80037,6.6165251 25.178303,6.0074994 24.705379,5.3470535 24.368973,4.6174784 23.770155,3.3187388 23.779395,2.205492 24.392513,1.783215 c 0.09678,-0.06665 0.168331,-0.1335896 0.158962,-0.1487227 -0.01865,-0.030202 -0.02102,-0.030137 -0.257842,0.00457 m 0.465809,0.044465 c -0.880265,0.1753822 -1.024705,1.4650096 -0.329196,2.9395182 0.713831,1.5134039 2.017626,2.7581151 3.113743,2.9726506 0.250565,0.049038 0.312095,0.050615 0.509212,0.013039 C 28.654048,7.4942426 28.923352,6.952865 28.825438,6.0562466 28.62655,4.2345144 26.786466,1.973891 25.271484,1.6900011 c -0.149238,-0.027948 -0.284727,-0.048973 -0.301051,-0.046719 -0.01633,0.00229 -0.111276,0.020381 -0.210993,0.040248 m 0.250822,0.4741481 c -0.193542,0.045496 -0.397131,0.2116375 -0.506315,0.4132616 -0.44665,0.8246236 0.192094,2.5188516 1.392404,3.6931781 0.646409,0.6324014 1.369544,0.9742478 1.86301,0.8806482 C 28.144289,7.0717727 28.397687,6.7727496 28.46086,6.3169865 28.635244,5.0586557 27.376655,3.0285702 25.990884,2.3328997 25.632745,2.1531058 25.290127,2.0918974 25.010262,2.157678 m -0.0051,0.5125281 c -0.318761,0.2273824 -0.584588,0.437861 -0.590705,0.4677407 -0.02,0.097431 0.03014,0.3365016 0.07054,0.3365016 0.04743,0 0.501227,0.3179877 0.718757,0.5036737 l 0.156234,0.1333643 0.762321,-0.5395746 0.76232,-0.5395745 -0.102619,-0.096787 c -0.273285,-0.257842 -1.001088,-0.6902938 -1.147301,-0.6816968 -0.02749,0.00161 -0.310806,0.1889702 -0.629566,0.4163526 m -2.560001,0.3088435 c -0.345196,0.205681 -0.866675,0.512013 -1.158872,0.6807629 -0.292197,0.168782 -0.886251,0.5120452 -1.320119,0.7628356 -0.433868,0.2508226 -1.15108,0.6643741 -1.593803,0.9190927 -0.442723,0.2546864 -1.232379,0.7114154 -1.754791,1.0149462 -0.522413,0.3035308 -1.199216,0.6811493 -1.504002,0.8391449 l -0.554161,0.2872708 -0.0093,0.3863763 c -0.007,0.2885265 0.0087,0.4882831 0.06155,0.7888517 0.07421,0.4215044 0.259902,1.0625347 0.307814,1.0625347 0.06333,0 1.254338,-0.7027218 2.020071,-1.1919064 0.867867,-0.5544179 1.581792,-1.0086676 2.350456,-1.4955983 0.25678,-0.1626322 0.756654,-0.4837432 1.110832,-0.7135083 0.354178,-0.2297973 0.73814,-0.4741159 0.853249,-0.5429552 0.464713,-0.277869 1.137234,-0.724842 1.593801,-1.0593151 0.265634,-0.1945727 0.486126,-0.3554019 0.489958,-0.357366 0.0039,-0.00197 -0.04211,-0.1809207 -0.102169,-0.3976778 -0.116009,-0.4188641 -0.197858,-1.0302403 -0.16524,-1.2342792 0.01081,-0.067745 0.01577,-0.1231574 0.01101,-0.1231574 -0.0049,0 -0.291134,0.1682669 -0.636297,0.3739479 m 1.996534,0.5852313 c 0,0.013973 0.02235,0.1117916 0.04965,0.2173367 0.10474,0.4046648 0.17973,0.6265735 0.211735,0.6265735 0.01833,0 0.140866,-0.075118 0.272363,-0.1669145 l 0.23907,-0.1669468 -0.07248,-0.077597 c -0.09633,-0.10313 -0.607091,-0.4578879 -0.659252,-0.4578879 -0.0226,0 -0.04108,0.01143 -0.04108,0.025436 m 2.881724,1.7276496 c -0.407305,0.2901042 -0.737078,0.5395423 -0.732828,0.5543533 0.0043,0.014811 0.05911,0.1771859 0.121935,0.3608755 0.06281,0.1836898 0.131786,0.4205062 0.153261,0.5262768 0.03454,0.17007 0.05087,0.197245 0.141254,0.2349813 0.102002,0.042566 0.103675,0.041632 0.756653,-0.4214723 C 28.12361,6.2916792 28.4179,6.0718954 28.41761,6.058501 28.417321,6.045139 28.40608,5.9264569 28.39269,5.7948314 28.36129,5.4869217 28.144282,4.7603733 28.084587,4.7634321 c -0.01134,5.795e-4 -0.353889,0.2383941 -0.761194,0.5284984 m -1.023539,0.8645167 c -0.135103,0.092118 -0.241646,0.1820155 -0.236753,0.1997244 0.01137,0.04102 0.480621,0.3841547 0.642223,0.4696082 l 0.122514,0.064751 -0.02102,-0.1222881 c -0.03059,-0.17812 -0.205459,-0.7448374 -0.235564,-0.7634479 -0.01414,-0.00875 -0.136263,0.059502 -0.271398,0.1516527 m 1.465139,0.4484219 c -0.323815,0.2308922 -0.58227,0.4263019 -0.574348,0.4342548 0.01442,0.014393 1.211385,-0.822563 1.211385,-0.8470656 0,-0.035385 -0.09299,0.024857 -0.637037,0.4128108 m -2.504491,1.3130034 c -0.211284,0.1761553 -1.02892,0.8225307 -1.816967,1.4364505 -0.788047,0.6138875 -1.563215,1.2204337 -1.722595,1.3479067 -0.15938,0.127439 -0.905568,0.713861 -1.658198,1.303182 -0.752629,0.589289 -1.433617,1.132727 -1.513306,1.207651 -0.07969,0.07489 -0.275293,0.227737 -0.434675,0.339625 -0.15938,0.111888 -0.302983,0.214953 -0.319081,0.229088 -0.04086,0.03577 0.06247,0.119294 0.528369,0.427141 0.418124,0.276259 1.032269,0.572738 1.294746,0.62506 l 0.15175,0.03026 0.451321,-0.374173 c 0.248246,-0.205809 1.737533,-1.47628 3.30957,-2.823284 1.572005,-1.346969 3.050313,-2.6106124 3.285069,-2.8080184 C 27.293231,8.4578951 27.286018,8.4927011 26.91719,8.3716687 26.682402,8.2946218 26.117198,7.9759258 25.890589,7.7928155 25.810898,7.7284194 25.722965,7.6581312 25.695178,7.636655 25.652709,7.6038131 25.583419,7.6486328 25.260505,7.9178727 M 12.963081,8.0470512 c -0.675257,0.071673 -1.103781,0.5018383 -1.267572,1.2724337 -0.08629,0.4061781 -0.08713,0.7512441 -0.003,1.2510541 0.399964,2.376311 2.343436,5.065554 4.379286,6.0597 1.556419,0.760068 2.685507,0.304659 2.845436,-1.147666 0.03812,-0.346032 0.02041,-0.815898 -0.03262,-0.865289 -0.01613,-0.01501 -0.06192,-0.03713 -0.10174,-0.04916 -0.0632,-0.0191 -0.07242,-0.01036 -0.07219,0.06884 5.15e-4,0.192802 -0.168782,0.527629 -0.374269,0.740233 -0.108315,0.112048 -0.215728,0.203717 -0.238686,0.203717 -0.04443,0 -0.33898,0.178666 -0.414452,0.251402 -0.0248,0.02392 -0.125347,0.07898 -0.223422,0.122353 -1.379557,0.610119 -3.944903,-1.58189 -4.808549,-4.108727 -0.326301,-0.954703 -0.33873,-1.836349 -0.03265,-2.3154878 0.138934,-0.21753 0.133782,-0.2121851 0.386601,-0.3982575 0.111728,-0.082201 0.227641,-0.1775399 0.257584,-0.2118307 0.02991,-0.034323 0.128664,-0.112178 0.21943,-0.1730323 0.209867,-0.1407698 0.482198,-0.2007224 0.801795,-0.1765419 0.231215,0.017484 0.240585,0.015455 0.240134,-0.051774 C 14.52336,8.4028472 14.483537,8.371583 14.184153,8.2524825 13.95178,8.1600095 13.285119,8.0005329 13.207168,8.0187571 c -0.01036,0.00239 -0.12013,0.015134 -0.244093,0.028301 m 0.811489,0.6273082 c -0.230633,0.063398 -0.450095,0.2302482 -0.583748,0.4437532 -0.841433,1.3443965 0.645183,4.5613655 2.762846,5.9786265 0.968936,0.648499 1.952489,0.735918 2.39006,0.212442 0.142959,-0.171037 0.274295,-0.460271 0.300569,-0.662024 l 0.0189,-0.144892 -0.338627,-0.220942 c -0.186233,-0.121516 -0.427815,-0.299055 -0.53687,-0.394555 -0.224324,-0.196407 -0.270526,-0.197921 -0.365351,-0.01207 -0.08799,0.172485 -0.283278,0.316056 -0.480908,0.353535 -0.868511,0.164693 -2.30245,-1.197058 -2.725242,-2.588077 -0.153296,-0.504382 -0.156611,-0.901513 -0.01025,-1.216731 0.08404,-0.180889 0.28608,-0.337242 0.474761,-0.367412 0.248214,-0.0397 0.248633,-0.04202 0.08948,-0.5163274 -0.07793,-0.2324699 -0.158849,-0.5241517 -0.179778,-0.6481785 l -0.03802,-0.2254829 -0.118489,-0.019609 c -0.188037,-0.031071 -0.491407,-0.018224 -0.65932,0.027949 m -3.525939,1.7907898 -1.3263983,0.937511 2.254e-4,0.422857 c 1.289e-4,0.268499 0.022539,0.552679 0.061402,0.778388 0.078757,0.457403 0.1896464,0.827037 0.239328,0.797834 0.14795,-0.08693 2.6290649,-1.856474 2.6290649,-1.875053 0,-0.01297 -0.03435,-0.138419 -0.07634,-0.278802 -0.124884,-0.417647 -0.219385,-1.059708 -0.207632,-1.4110203 0.0057,-0.1701343 0.0095,-0.3092942 0.0086,-0.3092621 -9.52e-4,3.22e-5 -0.598659,0.421923 -1.328169,0.9375424 m 2.400812,-0.396133 -0.184849,0.150913 -2.9e-4,0.307716 c -3.21e-4,0.344777 0.0871,0.8688 0.199982,1.198797 l 0.07479,0.218625 0.22764,-0.170328 0.227607,-0.170295 -0.09051,-0.269401 c -0.1123,-0.334119 -0.221226,-0.930072 -0.221226,-1.210195 0,-0.115945 -0.01085,-0.2098991 -0.02415,-0.2087722 -0.0133,0.00113 -0.107315,0.069934 -0.208997,0.1529402 m 1.744683,0.506186 c -0.148176,0.104225 -0.212991,0.171937 -0.226642,0.236816 -0.02644,0.125476 0.0041,0.454347 0.04215,0.454347 0.01713,0 0.115593,-0.05924 0.218786,-0.131626 l 0.18765,-0.131625 -9.33e-4,-0.28695 c -4.84e-4,-0.157834 -0.0038,-0.286948 -0.0072,-0.286948 -0.0034,0 -0.09969,0.06568 -0.213827,0.145986 m -5.3592793,0.01987 c -0.3270032,0.168654 -0.6061601,0.592282 -0.704493,1.069167 -0.06636,0.321916 -0.067648,0.936802 -0.00281,1.340823 0.2582926,1.608742 1.371314,3.561262 2.7822643,4.880705 1.241748,1.161222 2.577901,1.709619 3.446056,1.414331 0.2042,-0.06946 0.608607,-0.321046 0.573093,-0.356529 -0.0068,-0.0068 -0.06946,0.0034 -0.139288,0.02277 -0.182112,0.05036 -0.668335,0.0071 -1.00445,-0.08938 -1.44983,-0.416104 -3.17529,-2.034442 -4.2179573,-3.956117 -0.5949228,-1.096474 -0.9087892,-2.15389 -0.9092722,-3.06342 -2.575e-4,-0.477464 0.065265,-0.819729 0.2133119,-1.114276 0.060082,-0.119519 0.1054485,-0.216693 0.1008121,-0.21592 -0.00466,8.05e-4 -0.066425,0.03133 -0.1372601,0.06784 M 7.425021,12.461979 c -0.425014,0.300376 -0.7923612,0.565559 -0.8163166,0.589322 -0.059438,0.05892 -0.05068,0.76921 0.014521,1.177288 0.049681,0.311033 0.1657232,0.767053 0.2075485,0.815576 0.017612,0.02042 1.4779859,-0.977564 1.621396,-1.107998 0.016904,-0.0154 -0.00582,-0.151138 -0.054575,-0.325812 C 8.2682556,13.147026 8.240694,12.963915 8.2184451,12.420219 l -0.020671,-0.504381 -0.7727526,0.546141 m 8.8593815,1.339214 -0.21856,0.152135 0.160412,0.07853 0.16041,0.07856 0.229861,-0.157061 0.229862,-0.157062 -0.166851,-0.07364 c -0.09176,-0.04051 -0.16904,-0.07363 -0.171711,-0.07363 -0.0028,0 -0.103226,0.06845 -0.223423,0.152168 m 0.402638,0.160346 c -0.165273,0.120163 -0.194413,0.153971 -0.152781,0.177251 0.03782,0.02119 0.110793,-0.01215 0.275648,-0.125831 0.123286,-0.08507 0.224645,-0.165498 0.225192,-0.178796 0.0029,-0.06675 -0.166141,-0.0049 -0.348059,0.127376 m -1.479018,0.980628 c -0.128888,0.08748 -0.226705,0.171422 -0.217401,0.186459 0.04507,0.07296 0.722879,0.500356 0.990251,0.62448 0.447231,0.207549 0.479622,0.209223 0.749313,0.03874 0.187778,-0.118714 0.214599,-0.145954 0.160989,-0.16363 -0.37456,-0.12348 -0.974635,-0.460141 -1.320055,-0.740586 l -0.128792,-0.104544 -0.234305,0.15909 m -1.478758,2.102757 -1.326688,0.942984 0.317216,0.211219 c 0.174448,0.116138 0.436089,0.270946 0.581431,0.344036 0.255717,0.128567 0.791621,0.321948 0.892208,0.321948 0.06385,0 2.681773,-1.845172 2.654243,-1.870802 -0.01146,-0.01066 -0.09328,-0.03767 -0.181822,-0.06005 -0.264185,-0.06668 -0.846808,-0.352053 -1.200374,-0.587935 -0.18208,-0.121451 -0.348705,-0.226126 -0.370277,-0.232599 -0.02161,-0.0065 -0.636265,0.412586 -1.365937,0.931199 m -2.859281,1.98884 -0.829614,0.584588 0.124799,0.104739 c 0.327422,0.274907 1.115372,0.673391 1.526058,0.771819 0.176478,0.04228 0.177508,0.04209 0.324105,-0.06117 0.08085,-0.05699 0.445234,-0.313706 0.809683,-0.570485 0.475951,-0.33531 0.647728,-0.472635 0.60967,-0.487285 -0.02917,-0.01123 -0.197921,-0.07463 -0.37501,-0.14093 -0.350958,-0.131379 -0.893238,-0.42921 -1.179124,-0.647609 l -0.180985,-0.13829 -0.829583,0.58462"
     stroke="none"
     fill-rule="evenodd"
     id="path16"
     style="display:inline;fill:#000060;stroke-width:0.0321981" />
  <g
     id="layer1"
     style="display:inline">
    <rect
       style="display:inline;fill:#9a916c;stroke:#242424;stroke-width:0.00066813"
       id="rect995"
       width="2.9510212"
       height="1.9520469"
       x="3.0138226"
       y="19.132448"
       ry="0.15576801" />
  </g>
</svg>
